<mxfile host="app.diagrams.net" agent="Mozilla/5.0 (Windows NT 10.0; Win64; x64) AppleWebKit/537.36 (KHTML, like Gecko) Chrome/141.0.0.0 Safari/537.36" version="28.2.5">
  <diagram name="Page-1" id="Eo04vKU3PToOBcneJQKK">
    <mxGraphModel dx="1042" dy="561" grid="1" gridSize="10" guides="1" tooltips="1" connect="1" arrows="1" fold="1" page="1" pageScale="1" pageWidth="850" pageHeight="1100" math="0" shadow="0">
      <root>
        <mxCell id="0" />
        <mxCell id="1" parent="0" />
        <mxCell id="LcKzMA8Y2Yb7VPsAx9Zp-1" value="" style="sketch=0;aspect=fixed;pointerEvents=1;shadow=0;dashed=0;html=1;strokeColor=none;labelPosition=center;verticalLabelPosition=bottom;verticalAlign=top;align=center;fillColor=#00188D;shape=mxgraph.azure.laptop" vertex="1" parent="1">
          <mxGeometry x="60" y="160" width="350" height="210" as="geometry" />
        </mxCell>
        <mxCell id="LcKzMA8Y2Yb7VPsAx9Zp-15" style="edgeStyle=orthogonalEdgeStyle;rounded=0;orthogonalLoop=1;jettySize=auto;html=1;" edge="1" parent="1" source="LcKzMA8Y2Yb7VPsAx9Zp-2" target="LcKzMA8Y2Yb7VPsAx9Zp-6">
          <mxGeometry relative="1" as="geometry" />
        </mxCell>
        <mxCell id="LcKzMA8Y2Yb7VPsAx9Zp-2" value="" style="shape=image;verticalLabelPosition=bottom;labelBackgroundColor=default;verticalAlign=top;aspect=fixed;imageAspect=0;image=data:image/png,iVBORw0KGgoAAAANSUhEUgAAAaUAAAGjCAYAAACMiwqzAAAAAXNSR0IArs4c6QAAAARnQU1BAACxjwv8YQUAAAAJcEhZcwAADsMAAA7DAcdvqGQAAH87SURBVHhe7Z13fCPF2cd/K8lyb2efr/fKAXf0HnrvhB56S6MlIeUlhQTSCwkkkISEEggBQui9HL0eV4A7yjWu2ldsn9yb2rx/aGc9ejS7WtmyrfJ8P5/17jzPM8/K0mp+mtndWSMajQqYtLa2ys2kVFVVUZMWzukOzpkczukOzpkczumOkcjpoQaGYRiGGSlYlBiGYZiMgUWJYRiGyRhYlBiGYZiMwQgEAtaFDslOQKm4PbHFOd3BOZPDOd3BOZPDOd0xEjm5p8QwDMNkDCxKDMNkHEIAwSjQFgK29ETx/o4I7l4fwo+X9+GqJb248P0eXPh+D766uBc/+LgPf1oVxAtbw9jUY2BHEOiNAv03uzDZBIsSwzAZRSAEvNfqwT83e/D9lT6c9nYvLlnUi99/HsSj9WG80hjB4kAUiwNRvNUUwVMNYfzjixC+/WEfzv/Ii6s/9eIPX3jxfKOBjT0GIqxOWQWLEsMwI44QAo1B4F8NHnz/cy9uWuPFfxq8WN5hoD3kXlRCwsD6Hg+ebfLg9+u8+MHnXvxurRdrOoGI+zTMCMKixDDMiPNckweXLI7g5sU7sPDD9fjko8+w4aMV2LziM2xdtRaBLVvR29kFIXs9wlwkclvaBdAnDGzsNfBMsxffWOHDjSs92Nit1GEyEhYlhmFGhFBUYG17BBe83oqvPrEa7y9ajoYv1qO9qRnd7e3o7epCd3s72pub0bR+AzZ+vBzrl36E5o2bEerthYhG48WJ9oRMX1QAXVEDLwe8OP+jAvz0cw/WdkTRHRYJVZiRh0WJYZhhpzsUxSOr2nDWo2vx7NJ16OnogBBJJEIAob5e7Nhcj00rPkWgfgvCwSCNciQsgJcCXlz4bg9++Ukf3toeQXswyX6ZYYVFiWGYYSUUieJnr67Hj1/bhA2BrninVh+IUQiE+/qwY3M9tny2En1dJIcLWsLA4w0RXL+8D1cv6cXLW8LoDtMoZiRgUWIYZtgIRaK45PGVuOW9TWjpsVMB3ckipWguIhpFT3snNi3/FN2tbfFxLhAAAkGBD1qi+O5Hfbjk3W4sagzRMGaYYVFiGGbIEQJo7Azi0sdX4sEV2xCOCsCgUUgUIYl67ojUi4bC2LZ6LXo7OuMdKRAUwPIOgYs+6MNZb3Tj1a1htAQF3+s0Ahj8PKUYnNMdnDM5nDOR+vYgfvhaPV7a0I5gJBozCutPohbFdZbUGKH41G2gpKIS4+bNhs/v7zcOEL8hsFOpwAljojh6SjnGFCf//W73v+sY7PupI1dyJn+nGYZhBkFDRwhff34DXljf1i9IFma3R9trQkx4DEWkVEFSNwXQ096O1oZt/fZBEBQGPu704I/rfbhqaR/uXtOHxh5h6SMzdLAoMQwzZKxp6cMxD6zEe1s6EVZbdJ242CEU0bIVr9gNuIHN9YgE03deqDcKfNIWxR/XhHHam924c00IIb4Ld0hhUWIYJu2EowJLtnbhgie/wJaukDXyZkHFxa6dN3tBceWEbREb4hMCIhLFjo31SlA/ul3obDoiAgiEgT+uCeLIV3tw39o+bOmOIkw7fsygYVFiGCbtvLqxA1e+uAlrWs37iGjrT8txmEoklHNGdvEae/v2RkRCYUvPVF2jZQmNdVoagwK/XR3G5Yt68fc1ffi0NYowTcgMGBYlhmHSRlQIPLaqBd96aRPWtPQmvyE2gfiLF/TYXOxgrqPhMHo7k1+JR6q5Rpg9p3XdAn9dG8K1y3px0/I+bOgy+Gq9NMCixDBMWohEBf66tBFXvrAR27rTd17HQsi+imqLL0LEzi31tncQx9AQhYH6HoFHGsK4ZLkPf1gDbO2hUUwqsCgxDDNoOoMR3PJ+Pf6waDv61O6CXU+JnlOi2FSLq6jGxPWcBIJdw6sMUQH0RIHHmgrwlQ99uHGlF6s7DfREaCSTDBYlhmEGRWcwgl+8vgE/f2092oMuW2FLRGzUKcGs6yFRVeovR/qGoKfmkh5h4PkdHnzrUy9uWefFBwGg027yCiYBFiWGYQZMS08YVz29Cre+txntwbAiDuaSIC4U0quSxTgNEjGVkrlse1H9CKFcFucifigIhA082ejBz9b48KPPDLyzw4jNZME4YgQCAetdSnanrYrbO3g5pzs4Z3I4pzuGK2djVwhXvbgRr25qtz/Bb2cH6e1IHQO90IEIVZxwybpKDnNdUl2FiXvs2m9Xb8CVuBE5u3p2Nuoz92EA8BjArBIDP9ylELN97s55DfYz0pHpObmnxDBMymxq68O1L2/Cq5s67AUJumE4kzihIT6rDhUoE7ucEvOepbjc1rktJaFu39RgFUk9iia9VTZfTiQKrOwUuHRRD65Z4cV7zQKBYGKVfIdFiWGYlPikqQfffHEjXlrfhqjdhQypoqZxSplUkGhBVR51bbfY+Qdbv38JC+CDNgPXr/LhJ5958OQWA019hlU732FRYhjGNUu2duGyZ9bj3YZOd42oqyAXYgPEklltO0ls2dzucKAky5/M30+vMLC004M/rffge5958Hg9+JlOLEoMw7hBCIG3N3fg0mfWY01rL3Xbow7FqQsVIWH9SUQnQoaZgNpl0SZVJtInDKzsMvCHDT6c+oEXj2xGXl9KzqLEMIwjkajAG5s78bXnN6C+M7XHj8fQKIS2V0OVygzRXZBAxSgHiAJojxq4eaMP5y/z4rEtHmzpEXl3xR6LEsMwtvSGo7h72RZ8/fkN2No1gHt/1J6LujihahO9mk21q+hishQBoKHPwO/XefCNRT24c00Qq9ryZ/JXFiWGYbT0hKK45b3N+N6La9GoThvkRlgkhvmHiogWTVKNCSBX5Qnrj2LQVswqBIBVnVHc/kUY31zcg58v78Xmruz/v5LBosQwTAJ9kSh+9/ZG3PTqerT3Rfrbedkmyh4MXaDZhtB0bahu2DS2tJoctqN2dYzPJlW2EooKNPQKPNwQxtGvdeGmj3vR3Jtj/6QCixLDMHG09Ybxw5e+wK/e3IjehCfFmti1iard2jYSzwFZRVXBiE91yXWCGEmUHLYx2Y289eqBzWGc9EY3frG8F6vbo+jKsedmsCgxDGOxoaUH1z2/Bn9eVI+QnSANBHm1nBvchNq1w3b2HKMlJHD/pjAufLcHv/okiPeaIuiLunnjMh8jGu2/tCPZ9A8qbqeV4Jzu4JzJ4ZzuGGjOTe1BXLdwM97Y1D40V3zR3hK1JfSQ5FCc6VBtdjM2mPaS6ipM3HO+6cxtPACqCoBdK724eFoB9h7thc9jL1D0c3dioMeSE8lyck+JYRg0dYfw9WfX45UNbUMjSLDrLVGbqTRxZiNesOyQIuUUk4NEAQRCwBvNEVyyuBfnvtmNJc1h5+mfMhgWJYbJY6JCYHWgD6c+vAbvb+2i7uEl7ko90qJKQbPEioqZadKY840VnQKXLOrFFe/3YGlzGIG+aFYJFIsSw+Qp4ajAW5s6cNGTX+DzQAqzNAwVup6OncjY2bOo8R1KQgJ4Z0cEl33Qix8s68NjG4NZc8UeixLD5CGRqMArG9pxzUubsLolAwRJIntLTgjlHBLMKbglSapqcWqrnXxOKC9vwDnscMpHfL1R4O0dEfz68yAufb8HD28MoScykDdp+GBRYpg8QwiBV9e34KvPrsfmjiBtx4YfVy/ADBIOwkUFQJbVReejZdVG18kWGi+xi1PL1Ga3OMVJnxIjAHSFgdUdUdywvA/nLPHg+a0G+tJ4cWU6YVFimDyiKxjBnUu34uT7l6MjJFsl2ppJaJlCW0I38UkQ1h/FoJQNTRqpTxqdSsDNy4QmhpbtGGic29flFvoWKmwPGvj5F15ctMSDxxsMbO01MmoKIxYlhskTWnvDuOW9zbju+dXoi0RIS6iuqd1ukdBtu8WBJG4LIcVHV0FnY3REBbChz4PffuHF9z714P56DzaN8HUuEhYlhskDukMR3PTaOvz2zQ3oDGXBcxGE+UenM1TjZCyTOgawttvA3ZsMfOtTH25Z48Hm7pF9L1mUGCbHiUQFvv3cGtzy3ubsECQLOh5nNpbULM8xjWxbmtUEhYEtfcBD2zw4f5kPf1rjQWswdsvAcGMEAgFrr8nutFVxewcv53QH50wO53SHzCkEUN8RxPde2YSX1rfRsJEhoYdjvtA4m1kW1KeZxUHaZK/KPDdSMqoKE/fIjxkdhoqaAgMn1UVwRF0UE4sNFHvtBWogx6cd3FNimBxECGBtSy++8/JGvLqxnbpHFvu2rR8ZQ3tF0kYvAxdmoC6eGRA7QgL3bvHguk+8+OMaA0sCQMTNZzdIWJQYJgfZ0NaHK55djzc2dySfNoi61TL1SdzEOCFkl0eprOaR4qLLLYj4xJVJTmZQCAE0hgw80+TBT1b78N0VXqxoi10oMVSwKDFMDiEAbGwL4oSHVmF5Y3dMkNT2X22z1YZF59NtyzK12+VPWEgyNa8lLOT8kN22irpPJu0IAC0h4L02A19f4cN3lhuo7xJD0nNiUWKYHCEYEVi4NoCTHlqFbfLR5XaNxkAacaInjriNU7Hq0AlZlX3Ly8Ht8tN6TNqJCOD9di8u+KgAt6w2UN+T3mE9FiWGyQHCUYGnPm/C1578HPWdQerOIszWzbaRs3PY2ZmhoicKPNLoxQ8+9eLF+jCCaboBl0WJYXKAu5ZswTefWomNbX3UlQXIbpAiLPRiBkrSHpFDXSZtCABf9Bi48dM+/GNleo49FiWGyWLCUYGb396Ebzy9Es09IQinhjwTUcWFXrxAlccgQ3xxwmPGZtm/nyu0hQRuWxvCt97rRe8gb4VjUWKYLCXQE8JPF36Bn76yjrqykwRBIeeOhHpVnnkxRJxIqSTtSjHpxgBe2hHGj5f2YkfvwMfyWJQYJgvp6IvghoXr8Jf369EdHuRP00wiTltcCovaq4q7NJwZbqICWNgUwT9Xh9Adpl53sCgxTJbR2hvGuf9dgbuWbsmyaYM06LRDyD+aq/AkCXYzER3VyweS/b92fjs7RY1zUac3IvDfzSE8v3lgF9wY0Wj/bVDJpn9QcTutBOd0B+dMTr7nFAJo6g7hgie+wOJtGTKlc6rQc16WAKmCQssyVnmgn27KIbmOymmGFlhV44g7N6VB+q2hQlInWX2KmkeW7epTsaVx6mtzel3J9qGrC4c6Kk65JQZQEBX4954RTC2LdyU75rmnxDBZgACwckcPLn9mPZZuz1JBco3D5Kq00YZw0UISkoVLv5parZOsPoW+RKf6MpbWUf26tdM2xa6uUx0VN3ECCBkGfvyJF20pdphYlBgmC/i0qRtXvbAR7zZ0DukULxmDFB9LhBz+aV0jy2QEG0IGHttspHRzLYsSw2Q4b6xvwbmPrcVHjV0j8iiBIcfpV7puWiKB+C6TKmB2eZgRISyAl3d4UJ9C555FiWEylEhU4OmVzTj9gRVo6AwmnI7R4xTk5NOhdkHc1nUb54SSI2G4zkR9M6xNdd92FZnhZmOvgXea3U9FxKLEMBlIKCrw0IrtuOrplQj0hpRugG6BZlu1ufHpFjXebV2dX7UpRSfUaioJw3oSGkjLzEgRAfBSkxcd5nSMyWBRYpgMIxQR+PN7m/Ht51Zjc3tvYoOegM6ns0mcfMkYSF0bMXJKlSA65G1wqstkHF90Axu7dB9qIixKDJNB9ISi+Plr6/HThV+guZtctuS2QU7md4Nb8RgISXOTxksVIx1qJzJpMDMShAwDz25hUWKYrKK9L4wfvLgGv31rPbpDEX3PQF3T9pe2xWqMrp7OrqLzO9noootBouZYSH//RjyGYldzCACGabCpyow877YYrj4eFiWGyQAaO4P4vxfW4s4lDQjRM8LJvslUBNS1is4GYldzOTHQGAPkqbO6IIIUIPo6VdxdBcKMIE0hA5s6qDURIxAIWJ9msjttVdzetc453cE5k5OrORs6QvjOixvw2qb25I8uz3aoeGiFRpmIVc7cILd1NqHaYuuSUdX2MzowI8bP5/lxVG03NcfBPSWGGUG+CPTh4ifXYuGGttwXJNfYje+hX7l0IXE2fi8zkRUtyWcPZ1FimBHi86ZuXPHsOizd1sVNKFRRkT0ialew3jDpTJyaKJX3VI1NpR5SjKexVoeP2LMZ3f8ibZu6WZQYJuMQAvigvh3nP/wJPsr5eeySoBMciq6VA0yH0qzH5YoVZIS6qFAxUkXC7aJe/KfW1+WhNqfYVBcV6huqRbcvOxsAbGFRYpjMIiqAJz5vwjkPrcCHW9upO/+wWixdE5ZY7Ic8ADAF6J4GmMaC1k9X3lSh/9dwkMq+BIBOF89YYlFimGEiEhV4eMV2XPnUSmxo7aHuPMZs2nQtHO1JCc3l4LptJiMJu/iMWJQYZhgIRwX+tWwrvv7E59jW2UfdjCTup76mBZNjZRZKIcHHZCMsSgwzxHQGI/jbonp857nVaA+6GL/IV+zExhFFidRelHbCVgdUMZTbcQI5AHR1dTa42JfOR21q2cnnFpqP5rArU3uKsCgxzBDS3BXEDS9/gR+8uAYdLEh6ZINHr77TIWOtECXWEiRlTbftFolu1zTW7aKrq7NJu53Prh61qWUnn9uF5qM57MrUTpcksCgxzBDR2hvGT17+An9bXI/ecPKrjhgNQv4hrZmcVojiotFjMhsWJYYZAtr7Ivjq45/jH0sa0MeClCKK4Fjz3dmIEJNzGNFo/23kbqdRQQpTqXBOd3DO5GRDTiEEPtzQiOtf3YSX17dRN6ObZijh/I9Z1vmsqYbM7bgph6QtNs3QBJ5mKOOoEAKLTy2n5ji4p8QwaUIAWLalE1c+v54FyQmhLG5RY6lYGabRUG+gTSU5k0mwKDFMmvh0eycuffRTLN7SSV0Dg/YqVJx8lFRiJVaPZAB14VCPmmlZIu1SZOjoXcK9SqbBLh+TNbAoMcwgiUQFPtragRPu/RArtncgag0r2SwwG+1ki1OchNp1iy5OZ6N+CfXp6qtlXT1ZdovuSjpHhIsYJhtgUWKYQdAXjuLZVU044s6l2NzWS916UmmcnRhMHjd1nWKoj4oRRWezJXFy1RjqPlS7WhYaJ5NNsCgxzADpCUVwz9IGfP3xz9HSG6JuZsCQyVWlxqhaQ4fzmJyBRYlhBsh9H27FD15Yi21dQepiBoudAOkESsXOzmQNLEoMkyJdwQh+88YGXPnU5zxLQ8rI4TV1UVwSnRBZBQfl4R5U1sOixDAp0NgVxA9fWosfvbwW/KDYocI8p6R7f5OJjq4Ok1WwKDGMS7Z29OG6Z1fhziX1ECmduGdSw6b35ITdpeNM1mEEAgHrY3dzx7rE7Z3wnNMdnDM5I5mzLxzFUXd+gPcbOhHmLtLAoWIurD/9AhS3Vi71Fmb3Schtw7zkXI2NlWMzOuxmVmQyhUoALx3iPOTNPSWGcSAqBDa09ODAvy/G25s7WJDSDe3ZmFqTtIdkmEGqICkrJnthUWIYGyJRgSX17Tj9P8uxjB9dPjToREQKkxY5c4MpSDSOlq1elrLoUO00RlePliXq/lJB3QfdX7JctC710W26lsg8Oj99bdSnqzNAWJQYxob3N7fha098juXbO6iLGTHkcJ4UJygziSs4NZRqw0rj6LZal9poDtVu57dbJHTbTS41nsaqZRqji5VQv2qT0Hq0jm5xAYsSw2h4a0MLTr7vQyzf3oEID9kNLSk0WBBSj5QWkDaGTFbDosQwCn0RgUc/2Y5j71mGlt5wwnl5ZphQL2qgCMSP06lX3tHhOybrYFFiGJPuUAR3Lm7AN55ciR5+MN/QoxMcIOZIeom3bWVHF5P5sCgxDICoAG5+ayN+tnAtmrt52qAhxW6YzdZmOqRfe3Ve/+XgTHbDosTkPeGowBWPfYZfvLYOO3psJlaljR0t65AxNJaWdbZkZWmzW2hcMuzqSp8OO7uKmlOXXy1re0VKZenX5jBs6jPZBosSk7cIATR3hXDFo5/h3mVbEIpoTprrGlU3ZdVGfbSss7kpU+Q5FdmTkAst6xYVnY/anOw0RsYlw02MjgSxGmgiJhNgUWLylq2dIVz55Od4cPnW2IP5JANp0wZSZzDo9qcTA2nPVlTBcfw/pNMxiMkCjGi0/3pXt1OzIIXpWTinOzhnctKZc0t7Hy58+BO8tbEl1kNKO4K0qE5jSzq/zpYM+X+4qZfK60sj9HJGq2huCLKtnieSdaU9zqZMPySAklGjeJqhDKQCAotPLafmOLinxOQdq5q6cODfFuG1dTsQikRlK6e0kGqZLtRPyzq7XYyTX2ejC41RobF0UWPcxKe62OXUYWc30emloRiTVGeyCxYlJm+IRAUWb27DGfd/jI1tvTZtmd7aD/XT8nBit287+3Di9jUocdam8ugKWy1TjAYAYYqUZdZWYrIAFiUmb3h57Q5c/Mgn+Ky5i7qYEUNemaGSTFDUS79NAZMGmorJOrJClNr6IljXFsSnO/qwpjWIHb0Rnq2ZcU00KvDIiu346mOf4fOmLn4WUkagfgZUUBRlSRAZGqvAH2tOkJGi1BcReGVzF658bStm3bsWE+9ei13/sw57P7Qeuz2wDvMfbcTujzXi62+14MkN3egbkhPVTC4QiQr8dVE9Ln7kE9S391I3M+xQMVLKuqE3+tWW5YRYep+STrWYbCBjRCkUFajvDOG2jwPY9f4vcPTjm/C3Fa34oi2ErlAUPWGB3ohAT1igJwI0dEfx8PpeXPJmGxY82ogbFrdiTVsIIe5BMSbdoQj+tmgzbnh5LbpDEepmRoxBfEd1WiOsP9TIZCEZIUptwSjuX9ON457YjGve2I61baGUDqnG3ihu+7wHZ7y8A7eu6EBDl/OTDZncpysYwa9eXYcbXlqL1l6bWRqYzIN+8VURittWelk6oXJCVlX3ZVeWNl1ZXavQPHJN6+jqStT90bo0vy4fjbODxtntR8XNa6LoXqMNIy5Kgb4ornynFT9b1olPA33UnRKbuwV+u7wLX3uzBcsa7a6uYnKdtr4IvvXMKvzxnU1o7eMfKJmP0soZmkZODbO2FSUSUC54UFAbT3XRxdiVpU1XVtc0P92WUButq9aj0Dy0bGd3Wmic3KZ2XR3pV7fVHLQOrWvDiIrS1p4ojn1+B57f3IuOUETzH0nof6j7T2O2iBB4rymEs19rxQsbOpUcTD7Q1B3CN575Av9a1oDeMA/ZZRzq/UWSuK+zy5YL6qPQzZ6TFDQgXrSYrMIIBALWUZDsLngVt3fX63JGBLCssQcXvdSAlS1DNyOzzwCumluEb+5SiZoir/b7ING9TjsG87/bwTmTkyzn5rZeXPPUSjy9sil+2iAmc6CfCxUj1U1twlQhYW7LNYyEmR1KqqsxYY/drVRMZlBpAC8d6jx6MSI9pTfqu3DFwi1YNYSCBABhAfz58158860APm7u4yeI5jArtnXikoc/wVOfN7IgZQtUkFR0NjtSiWUynmEXpUfWtOOSl7dgxY4+64dP/K8jzWJnd+GPCuC1bSFc/mYLnt3Qyfeo5CCL69vwlYeW49X1AetwYDIY9XtL7RKHUY1YnEOALjeTNQybKEWFwH2ft+H8FxuwuSOU+OPG7kCFg12SxB8RwLrOKC57uwM3LAogyE8VzQmEEHhrfQvOeXA5Pm1Mcv5QPUbo8ULLyRhsPD3WqV/HQGPovnQ4+XX1aVnFyQeNn5aTYcUrFaU+JTQqTDYyLKLUFYriTx8GcO0b2xAcwRtdIwL42+o+nP9qM9a0Bnk4L4uJCuD1dS0476HlWB/o6W887RYo2+oVXtTnZHPy6Wx2PomdX7cMNAaa/5cuunqqj/rtbMlyqXV16Do/dnUS7KYhwc5kG0MuSj1hgT8s3YFffdCMtr6RvxoqKoBXt4Vx2RsBPLexG+EI95qyjb5wFP9etgXnP7QC9e0DuI3ATcPlJkYl1fjhZCheG81JyymhUSOZT96PRHtBsop19ZImB5OVDKkodYQErli4Bb9b2oyWDBAkSVQAn7RGcd0HHfj1sla0Z9BrY5zpDUdx23ub8e1nVmFr5wAEiclAqKIpjz43iwmaI6tYYqWuaT4mmxgyUWoNClz5dgseXNWGnnBmHiTNvVHc+lkvLnt9x8B+cTPDSjAi8Ke3NuKGl3mWhtzHHHOkmuOSQq8BDxUyJisYElHa3BXB194M4LnNmT+rQhTAK9vCOP6JTXhzcweCPJyXkXQEI/jxi2vws1fWoidhHjs3LZfO5+ZXtc6v2nR+FeqnZTubSjK/Dvoa1f9Vl4/GqDa5rVs7kUqsirzviKiKOoRHe1ImZX4vTt+5Brd/eRa8LEpZSdpFaWVrGNe+04pXtvQhm64j+KQlhLOeb8Cty5rR3M2/wjOJ+vYgbnh1E/709gbNk2Jpw0d9NIbaktXV2VWbzm8Xqyvb2VLx6xa1jgr12cWoNrUOXTstutg0QVIZMDB9VDFuOHIK/nr2PNRVFMUHMFlDWkVpSXMIF73egje2ZpcgSRp7ovjZoh342sItWNfKw3mZwOa2Pnz3xfX4z4omROjJ7rQylLmZ1DA/C5cfiWEAe4wvw78v3AMX7TsBBd60NmvMMGNEo/3y4Xa6F5ApX4QQeGdrDy54sQEb23OjlzGt1MDdB1djQV3iL65k091IBvp+OpFPOZu7QjjzPx/ijfUt1MVkK1RoBDFaHSt5Pkk9r2T2ttROlxA4fkYF/nHOLijxe61j6YPmCC59pwchHo3PKCogsPi0cmqOY9A/KaICeHFjJ77yfH3OCBIArO8SOHVhAPd81oa2IB/Zw0lUCKxs6sKR/1zMgpTzUJUi2Lg9HgNjywrw62Om4v4LF6DE76UhTJYyKFHqiwjc+1krLlu4FfWdzpPsZSNtIeBHS7vwk0Ut+KI1mHCrBJN+wlGBN9e34qz7P8Ly7R3UzWQ9spujdndSwzAM7D6mBLefMguX7DOBuvtxSk99tKyBfv+F5vapmCPeR2OkT13UOJ1N66f7Nm10fzp0+0+A7JvG0bJEFyvtbhiwKPWEBX63tBnfeWs7tqbzoXouX/iQoe5fAL1R4L8b+nDpmy1Yur1bcTLpJiqAhWt34LJHViSfNojJPWRD69B6eQzgzHnVuOusuThk5ij4ffZNmEylXaiPljULSIy1Hxrb73Ksp6LG6WxaP923aVPr2C0U6rfykXiaI6GOTaxl1+ybYv+JOtAXEfjD0mb8alEz2nojysFEFmhsdouMTaWObhlMfZApWcxcoQiwIhDBiS+34r7P23hS1yHirQ0tOPfBj7G+pcd6+5l8wfzErXnsVF+MkgIDvzlqGv5+xjxMri7m+5CyEM3HmkDKotQWjOKGxe34+aIm9CWbxy6JO45UYp0YTB5VjDQEI8D3F3fj6y/Xo74j6BTKpEB3KIJ7l23BsXcvQVtvGnvdTPYgzD/yB59hGQEA82qLce8Zc3HxPuMtG5ObpCRKmzsjuP79Nty9qhv5OtF2MCrwr5WduOiFBrxbz+c8Bkt7XwS3v7cZ1zz1Gfry9aDKd6yxIOow4PcaOGOnGtx1xhwcPrMaPu4e5TyuRWlDRwTXvtuK/63vGeL7RTKfUFTg9YYenPP8VtzxYRPC2XhTVgbQG47i5ne34BevfoEOnn8w/6BfG6I3o4p9+O3xs3HzSTMxZ3QJDKdHRzM5gytRauyJ4Mq3W/H6lj4kG7HLFwSAhq4wrn6rCVe+XM/DTikSFQI/emUT/vLBFnT0me+dPLboMSaHVdVFh87upo7qo2XVPpgyhe4z2bYbaLwsU7uKbn80npYlgix2UJ8sO2jMhPJC/OcrC3D1IdNRXsiXe+cTSUVpfXsYp724A+9t5xkOdISjwF0rO/Dlpzfh48ZufhR3EoQQaGgP4vxHVuOeD7cnNmrq2qmxow2irh6tS32q364sbeoFMNKWSpkuql+3LaH1aJyTTZapXRfjFE/Lql2F+u3qq2VCkc+Dw6ZVYeHX9sExO9XBw72jvMMIBALWoUHvrF/XFsJFLzbgnS18KbQbppd5cN38Upw6vRTFPk/C++mE2xkQsjmnEMCa5i5c98wqvLimmYc98xH6o80qCtSVFOCS3erwjf3Go6LIZ4XojiU75PG5rNXA1R95eUaHDKPSAF4+zHlUyban1BGM4mfvNeL9bT3UxdiwrjOK6xd34ob3W7Cjh8+RUNYHunHeg8vx0todLEiMgsDkcj9uOW46rj1oYpwgMfmHVpQEgGfWdeDJdR38yPAUaQ8J3LW2Dxe/2oyG9r6EH4b5iBDAhpYeHHLHYizd0m7O9M0wsemC5o0qwgsX74Jj54xCkcPNsEx+oD0Cmnsi+PNHAXTwnG8D5p2mCA56eAOe/aIVXXk8hhCMRPHq2h047O8foKG9l7qZPGZUkQ9f3X00Xr18AcaWF1I3k6doRen1zZ34sIkbkMGysTOCi17ehl+/vx3bOoPUnfNEogLPr2zG1x77FJv4yb6MwozqYvz6yCn48eFTHKcKYvIP7dFw+8ctCPK132mhpS+KP37Uggueb8CG1vwS+vuWbcVXH/0U61t7eWomxuLASZV45tK9cNrOtSgpGMrLvdVL/pyWVGLTsaSyP7exMs5t/EgtyUkQpe3dYbzZwFfbpZPeCPBKQw/2fWg9Xt/YnvPn6SJRgdve3YzLHlmBpu6gIkhO/3eqPruD3M0XgPpoWWUwr121u4lJBfV/tMuR7H2QOOXR2SQ6n90+BQq9Br59wBS8ceX+mFNXmkGzM+he71CSyv7cxjp9htlFgii9tLGLmpg00dQrcOozDfjdB41o6g7lZO+htSeM373dgOtfWKU0UGpDRW0D9Uns7NSnlp18dJE+NzF0Ues6xTj57Ra1jl1dNUa16eIG46O2RPvUyiLcdvJc/OL42TyRKuNIgii93dDldGzpbbrjUd22W9RY6qOLXT41hwr129WhPup3iqHY5VRs7SGBXy4O4MqFW7A6kFvDeV3BKH77dj3+ungLuoLO9yIMP3Yf2nCQbN9OB1W6Geh+BlbPYxg4bGo17j93AS7eexKKh3S4jskFEkTpo0azobS+J+RgdPp1r2mEE+qrWLE0hpZlPtVu7kDNIWNomLVhFtTXmLAv9WEhcp80RvHF7ZPsWwaS19MdFnh8XSdOenIzXviiTXFmL229YVz+xGr866PteX21IdNPsc+Dq/abiAfO2w0HTK2GdyS7SNo2wQbqp+Vk0HinfdPmRVdWcfK7idXFqNvUL+267WTQWFq2IUGUtnSFlVcns9iVqU+3JIuXUBuNE5qHHalxcpvOB2MX79amK9NtudbtW43vXyICWNsWwhnPNeC3729DT5bOkC2EQHN3COf+bxVeXNea/HEmTF5QU1yAW06ci9+dsBPGjNTl3upXkJbpV9LJT8t2NrnQZkCXW11TPy3TXKpN7ovadTa1TNd2fqftZIuElpNgRKP9Z91bW1sx64Gt2NGXnQ1ktlLoAc6cWYafHTgW06ucv8Bup/lBCtOzDDSnEMDKpk5866nP8eq6QM5fwMEkx+cxsEttMX5xxBTsP7kSTlPXDeXx+UFzBJe81c3TDGUYFQaw5Mvl1BxHQk+p1OdwFDFDQl8UeGBNJ859djOe+6Itaxr3T7d34pL/Lscra3dkzWtmho6KQh/O36UW950+BwdMcRYkhrEjQZQmlPGJyJEgKoDFjX249OWtuPmD7ejO8J94b60P4KR7lmBxQxvPjM6gqsiH3xwzCzcdORUTK517+wzjRIIo7TqqgJqYYaSxJ4IfvrcjY5/RFBXAcyubcPp9H2JjSw9EVI4ZKxd92OFmbFkXI23qQv126OJVpE8Xo9ponC6vrkxtA0GXg9p0r88t8nXSOrr/n+ABMKGsEAsv3wtfP2AKyvz8o5YZHAmidMBY/pUz0kQB3LuqA0c9sh7vNXQimCETmIajAo9/sg3ffPQTNHeRaZMEFGGyWeJibRZdjA7VT08s6+pSu+pX1zqfLk5iFy+Uh9jpfE4LjaVlnU2W6Zpu6xYVatdtm0u534vTd67DkmsPwB4T3Z0fYphkJIjSQWP9KCvgweBMYElTEGc/14C/f9SM9hF+XHgkKnDnkm248rHPsCnZdEl2l9EPFcO4q5RQX1cqrzGVWDekOx+AuhI/fnrEDPz1y7uM3NV1TE6SIEqjirw4fEIRNTMjRH1nGD96txnffrUBnSMkTL3hKP74TgN+/tpGNHb26q/MpwhTnJyG85isZFplEZ68eHdceeBU1JT6qZthBkWCKAHA5XNLUKD1MCNBV1jgnpUd2Ov+NfiiJYjIMDb0ncEIfv7qJtz8Tn3/vVTDuH8mcyjwGDhlbi2WfvtA7DulGoU8uzczBGiPql1r/Dh0XKE1JM5kBqvbIzjxhWb8d3XnsDzrqrkrhJsWbsTdS7cimHBzr9lVStZjAveYcoHRJX788LDpuPvsBagq5ouhmKFDK0rlBQa+Oq8Mo4s07oGOk9vhlMPJ55ZUc6Qa74RTLicf7P3bewV+sqQDP1/cih09Q3d13pb2Plzz9Br868Nt6IuYl9hpBcg0JNgJfNNK1jJ3VBHuPGNn/ODwGaguYUFihhYjEAhYzYl6h3VvWOCGd7fjlmUBhAdzYySdBmOgyDzJ8iXzD5SB5LWrY2dPhlLP7zUwr9qPe48Zh13HlNJIIIU74emd9et2dOPC+z/Ee5tb+zs4lqYYyjbFyUdgkcp4vB4Dp8wdjT+evBPK0efqI6PHkhMDPT6dkDmXtRq4+kMPz+iQYVR6DLx8mPOPaU1XKEaRz8DPDqjDAeOKBzfV/EAaXx0yT7J8yfwDZSB57erY2ZOh1AtGBD5q7sMRj27Cg5/uSNucc6saO3Huvcvw7oYWiCiZnFZuCLOcsEu73hSTbZQX+vD9L03Fv85ZgMnVxa4EiWHSga0oAUCJz4PHT5mM46eVo2BQysQMFc29UVz5WiNuensrGrtC1O0aIYClm9tw3r3LsHhTS6JTmDdQCbNs+dRAxZBgJ/A5pozEYxiYW1OCO06bhxuPnY2yQr4ZlhleHEUJAKqLvLjjqPE4e04FirwsTJlIazCKmz9sxYXPbcaSrak/pDEqBJ75dDvOvmcJljWYj9KgN8JSlVHvRUrQF8We4FOQF0CwQGUEfq+BE+fU4MHzdsM5u4/PoCfDMvlEUlECgLElPtx62Dhctms1H6gZSjAq8HJ9D858ph4PfRZAyOVwXlQAj3+8DV9/6GOs29FFekFEeCwRUQSHlvsrO4iWBnVf/UbNWo2xi1fLah1al8ZLaJxc03y6GLqmsdJut6aLRBeroot1Ij6+yGfgWwdMwV1nzcf88c6zOGcNTm8VtUm7XNO3ky6qT7eW6GKdoPG0rGLnV9dqjF28WqbxTmsdtD7dpwtciZJhxHpMfzp0LL42vxqF3GPKSIQANnaEccXCbfjlu9vQHXY+GiJRgUc+3o7LH/wIW9vVWRqUo4mmUMvWtiJMcoiPBrk5OIX5T8QF07UVSLbtyhLqV+10oXE0l7ziRBdD13JbFy/zOF35QuvQNfU7xSTGewygpqQAd5++M35z4lzUlPph5NIJJN3bAM1HqMap/760U2gduqZ+pxineAn1qX5aV11LBhrvtNYtEl0+arPBlShJfB4Dtx42DjceUIda3eXiTEbQFRb45ZIAvvpKMz4PBLWPlegKRvDvJVvx3afWoK0rGH/QxB1kuiE2JViNo0ddXB5N2Y5k/hEnXS9QfWOGAue8RT4PDp1ajde+ui/O2WMidWc3zv+6s39kP5ZEUo1PlaHOr+JiXykri8cArtm9Bj/coxyji/kkaKYSEcBzDUFc+uoOPL2+K+7qvEB3CL9duAHXP7sGnX3m5Znq+R1VhNSDSLUJpazaYNaN6zHJfDZ5JW5+oTJpocTnwZX7TsK/zlmAncfmyHAdkxOkLEowLxf/yqxS/PVLlSjnyVszmtXtUXz73Xbc9lErhBBo7w3jNy+vxz/fr0dfSAoEPU9EREcdUqO9Jssny/2btlgCpcTL19Af5C4XkzJVhV7ccdJM3HjsHEysKuLLvZmMYkCiBPNKnSMmFuPRY0ejtsjr+p5JZngRANpCAr/8uBtnPN+Ebz66GnctakBfKEoExqaXFCWC1a8i5lpChIn2jChWLs1rUPdhV59JGZ/HwO51JXjxwl1wwtwalPCzj5gMZMCiJNlrdAEePnoUdqv1w8s/uTKa17aF8Fx7EURxSfyMCnE9H51NM+xmCY9iSxAqk4RekLSTKmpu1S/r63IwrijxeXDeLqNx3xlzMau2hLoZJmMwotH+s+Bup/0AmfojKoDlTb34+sItWLyth9uOTCccBlpbgNbWfmGRGqWKlaGZDsgwpxIyZIBiJyarQH+r0JwSG7MF3aeKoYiW3KZrip1dhy5/upH/mtNr1pEkdnx5IX5x7GyctssYVCqTqQ70++5EpuT8oCmCS97q5mmGMowKA1hyuvM5zEH3lGBe/DB/dCEeO3kyDpxQkvir1uELkwCtp8uVSj4dqdRPJZbi5nXb2Sk0hubWQd8/ue3zATW1wPgJgFcZwhFQhs80w3kw/UJe+q0kV3tNVrhiU1H3oVaIq6tBkH1SH92ma4qdXYcuf7pR/7VU9uEQu+/ESjx/+V64YM8JcYLEMJlKWkQJ5vQk48t8WHjGVBwzrSw2LRH9krlZJPSLJv3qr8mBLqnU18WqNp1f55PoYnR2utA4u21dHemP2zaA4hJgwiSgqEifx4oFGcIzAwS5LylOvNQNKW797oT9qE41TkcyP4MinwdfmT8Oj1+yJ3YdVwEv3/TOZAlpEyWJ32vgvuMm4uJdqlA60CcFOjU6Tr7hgjauw8VQ7MvvB8aOByoq+hXfEhnzD+0pqTHSJgVGO4mrigzUIX0256BUaA+OsZhUUYQbj5yJv5+5C8byo8qZLGOAquHM6GIvfvWlMfjGglHgyR+yAJ8PqK0DxoyJbcsGX+3d0J6SukibDLbEiWqQKjYkPgGlvhMsTBYeA9h7XCnuPWc+rjtsOsoKfTSEYTKeIRElAKgp8uLGA+tw076VfFVeNuDxAOUVwLgJZDiPDrspBSpIQtkGEba4HPGaFGfTYWeXsDDBaxg4ZfYo3HP6HBwyswYe/s4xWcqQiRIAFPsMfGPnMtz2pSpU8E222UFhYUyYystjw3lSaHRipG4L64+JOhRo1leH9ix0CqX6lE1diMR6jU5BuYdhGKgs9OL/DpqAO06dhfEVhXbXJzJMVjCkoiQ5dXoxfrVfJSaU8s16WYHPB4wZF7tCz+eLtfNRzZCcbP9VYZI9IzWI6kScqKk6oulVUQPNlcf4PAbmjy7GnafMxHVfmgSfd1i+zgwzpAzLUVzoNXDGjBLcelAVangi1+zAMIDqUcDYcbHhPCiiA7lWej5qb8rqFUkRIcN4Mo+1qNojc8RW/SiGBJ+CzJ3j+DwGTppVjX+cOhuHzRhF3QyTtQybQvi9Bg6dUISnj6/F1HLaY1IbEbttFWmna7pNiWv9XOAmTvca7FD3TeNpWaLG62Ls8qnofDobRcQuGx83ASgzb3gT0IiJ0huK6wWZAZZJFS7yEqxcSlzCS1SCaH2KKpI5ht9r4IaDJ+IvJ8/CrNpi8NXeNljHpMZGoTF2cToGGkv3k2qeVP4/t9DXZIdun3Q9QIxAIGClcHuHNVK4y1qXc21LEOc8U4+Pm3uUxyrobkvX2QaCmiddOXUMZW43pLL/VGLN0NYWILADiJq3ycvG0DASZ3SgM0NYazWO1EkomwVDY1NWScmRk/5ej4GplUW44/RdcPjsWuq2GMx3045sy7msxcDVyzzOMzoYqX0FbKF5aNnOlirpyJFuUnlNBlBpGHj5CPPJBDYMW09JZUaVH3cdOx4HTyhVrLr/TGcbCGqedOXUMZS53ZDK/lOJNQ++6mpg3PjYcJ5hXgQB2AzFKfmtOKVgxZCelOVTbFZONY7sz4kc6DEVeAycOGc0Hr94TxzmIEhMCqTrsKB5aNnOlirpyEEZ7O+1VF6Ty9gRESXDAObXFuKuY8bj1JkV1M1kMiUlwJixQFlZ4rCdkAJgbsvzSlBERY2RdtXfvxFvi6uv1EmItUE7nKeWqY9Cd0DjqY+Wk0Fj+stlfg9uPGoW/nb6zthlXPmg25F8Q76Tbj8Vp5hkZYmdXUcqsRL5vzjVpT5tfIKhH+qi5WTQ/bmtPyKiBMQuZZ1a6cf9J0zCBTtV8bh4NuH3x4RpzJj+HpNA7I8qTtZaOTylMMh4q6DY43xqWREnOSwTtw99Sou4WLtAWaYxKtRO66vburq6hfpi5SkVftx32mxcd+g0jK0wLzhhXCHfSTrClOxToTF2PrVsZ3ez6GJ1NuqXUJ9dDrt4nU1nT1amdhVadmLERElS4jNw25Hjce0eNSji6R+yB8MAKqtik7r6/TFbwhFJhtjielMyjvrVw1c9zJX4uLICFSa5TdJY9gR0RmpzKlOfiu5F2FPgNXDgxHI8eNZcHDK9CgV8ufeAcXrXU/tU7ElHDpV053NioPuyq0ftbr8hkow40sv9Hvxovzp8fecyFGbEK2JcU1wSu2y8rCxWFogXIqhl0pNS42nzEHf0mnWsn7xmLP0JDJJXhyp8ZJeZQnWRF1fsPgZ3fXkO5taVwsiRCzWGkwz8WBmXZIwEjCry4ru7V+D3B1SjzKcMCY3EAo0tlUXWH2yegSxDuU9dbgDwFwKjxwC1o2PTFQH9QmPV02zLGR7UXJA2tQcl7f0hVh61LIkTObooMXGLJjSdCzQ2zTKzugi3HDcDPzl8KurKzB4ow+QRGSNKMIfyvjK7FDcfWI1K/wi+NNmIDBS1ERpuhnKfTrm93thw3thxQIE5Eagw/2gbZtMgt4X6GAzpU3Zo2dV6yoYSamHtizrIVUc6f7pJsg/DnEz1P2fthBPm1qDQN4LHP8OMIBl35HsM4PQZJfjrIdUYz9MSZReGAZSUAuMmmpeN64RDFRq1pSZiY/W0FFWxwtUcygbNr42zK1PD8FHm9+IrO4/GI+ftjFk1xTyZKpPXZJwowRSmYyYX408HVWN6BU+/n3X4/cD4ibGek9ejFw6rp6QOn9kMp6k3QEqbVnCUPJZR2VbNOuS+hwmPYWBGdRF+eeQU/OnEGSjnR00wTGaKEkxhOnJiEe49sgZ71vHYetbh8QA1o4G6sUBBgY3gKMNuqhioeiIL6vmnOJ+5UC2hZWpI8CsMgzAZAPafVIm/nzIL58yv48lUGcbEiEateX5cT/uBFKb+SEfOL1qDuODZery/tZu6mGwgGAS2bwH6+mJla3TKnEII5tCfZSbbcaNZ5pRGVj3VR+pC4wfi9+sEzZUmDADn7zoavzhmOibW1bjaTTq+R5RczrmoKYJL3ux2nmaIGXYqDGDpGeY8mjZkxc+zGVV+3H/iRBw2qdRVW8JkGH4/MHEKUFEFGLrhPIeei9qzihnMeqbdujhCjXfoQcFUBSXEljQP53kMA2NKC/CXE2bg1pNnobzQ60qQGCafyApRAoDplX7cd/xEnDqzAn4e6sg+DAMYXQfU1QG+gn4xUUXEEiAiJlIYpM3yK8JDh/as+kpey5RMjQhpECYDwF7jSvHPU2fjrPl11M0wjElWte4Tygvwj2PG46vzSnj2h2zEMICyCmDseKCoOL4XpAqNtVbEQBUmNU6tGydwVHeIMEmbNlbDIITJ5zFwyW5j8I/TZuPAKZXw8ZxaDGNLVokSANQU+/CDPSpxxbwy+PnLnX0YRuxy8YmTgKrq+Lnz4kSFCg3dlkKhlC27uSHo8F4SAbKzS9T9u6TC78Gfjp2GXx87HZOrini4jmGSkHWiBAClBQau36sCP9ijHCU+/pZnJYYB1NYBdWP6H7kuF/UmWktsFDGI25Z/TJsVrxTU3DQurpBEtCQuhMljGJhXW4z7z5yLc3cbgwLu2TOMK7JSlACgyGvgmvnl+Nk+lRhdzDfZZiWGAZRXAGPGAcXFMZtQGn25bWmGIgbaXpJpU+urMdZi2mgvKm6dBIdeU5HXwOk71eDeM+bioKlVfDNsJuD08arHBi1Tu1pHB62ny0nj6Zouuli7RYeTD0nq0/x0oXF0ewBkrSjBfBLnxXNL8aeDqjG5zJv6GzGQ+FTqpBILTTwtS9za6UFDoQcSxc6ms+uQsXbxwhQmOalrVVX/Zdhx8+IJpWwzhEdFIk4wlBdhvSalbF10ofjUshNEmMaU+fHLo6bhD8fPwIwaU2iZkYF+huqa+iS0LKF11W27XBJqp/F0TdHF2kFfjxpP7dSvi0kGjaPbdHFBVosSzJPIx04uxM0HVcd6TOo/T98QareLsVsk1GZXpj67RcbReFpO1a6WqU/aVGisaqN1qF23qNDc1O8rAGrqYhO7WpO6mn9oPQGNOMkYpaCKixWobupeiIldfpW4fQJTK4vw3/P3wEV7jEV5IffeGSYB3feIkPWiBHP8/oiJRfjP0TWYUu6N3ctk98/b2QcKzUfLbhhInXRC90/L6YTmthp2ZThv3ASgQH1GExnCE6ad5tKi9rjMsuLqj6E2s8cm60qfupghxT4Pjpg+Cq9fuT8OnjGKH1jJMIPACAQC1tfQ7R3WSOEu6+HO+VlzL654cQsWbe1G/1wVTNYRCgGBZqCrE4hGNbNAkFkd5LCfKggyzmk7blNnIwZ1nwIYW+7HJbvX4cr9J6LEH+sdOR2flHQc8xTOCSxtMXD1Ug/P6JBhVHoMLDwyTM1x5ERPSWWnmiLcfdwEHDWlDHzBUxZTUBAbyqupjT0WQ+3pWGtlkeec4s49mT0dWSduOM5KGJ9btcVB7FFg1qgi/OXEmbj6wEmWIDEMMzhyTpQMA5gzqhD3nzgJX5pYSt1MNuHxAJXVwNgJgMds9FVBkkiRSXYOCJo4NdDadBKmmMDtN7EMT1+0Kw6fUY0ifvYRw6SNnP021RR78fhpU3DKtGIU8Y/Y7Ka4GJgyLfasJvUiCPV8jyROrDQ9JhqXUF8Vq/j8hgFUF/vwnQPG4+mL56OuzM83wzJMmslZUQKAykIP/nroKFw+rxxlBdx6ZDVeb2x6oupRgEfzZFtZtsRKipG8vJz4+hMogmWWzfNFFub2zKoi/OG4GfjeYVPh5asZGGZIyGlRAoBin4Hv7lGBq+eXo5SFKbvxeICqUcAY8xlNoCJkCoulOYqyCHm+SSnLulA1iYic6Th2Vi3uPXsnnDyvFoV8spJhhoycFyUAqPAbuG73Cty4byV1MdmGYT5yfdJUoKSkX01oD0iKTJxdESN1WxU1S4hi+D0GfnTETDz1tX0xt66Ue0gMM8TkhSgBsSfZXrpTGW47pBp1xR4+F5DteDyxCyBG1fZfBAFVdKRYKXYVKVpqDLFPqy7GnefMx0+Om8MzezPMMJE3oiQ5Z1Yp/nLIKEwr98FgZcpuPB6gusZ85Lpys63aG4LSU1LXas/IWsfifYaBo2fX4sGL9sRX9prEz+9imGEk775tHgM4dEIh/nxwNaaU8WV5WY9hAGXlwLiJQElZv7gkDNvJNbFLh2kr83tx3aHTcO/5e2CfqdU8mSrDDDN5J0oAUOAxcMC4Qjx90miML/EmNlTqL+lkZWpX1xIap9pUaFnadHaQeN3roNsqNFYX55RH7k9d1DinNc0loXYa67Qvvz92dd6oGs0zmjR1JdKH2OXefz1zV/zi5J0xpqIoPo5hmGHBiEb7J+NxO+0HUpj6I9NzbmwP4awnNuKjxl6EsmFeIsNIbFiZfoQAujqA5iYgHDanIELsj9XpUacoMlDgNTCntgS3nDoHe0y2vxgm2bEkSefxKeGc7pA5FzVFcMkb3TzNUIZRYQBLzyyn5jjysqekMrm8AA+cPBlHTSpCQTaczGZBcsaQj1yfELtKD4b5aArZY0Lsj/k2VhZ6ccHuY/C/ixc4ChKThVi9ZeogPt1CY2jZya7adH5plz51Lbd1C42T6OJ0PlnW+eyWVGLpoqvngrwXJcMAplcW4PdfqsZxU3nIJmcoKopdAFFVHbsgQijPaDJFqq60AL84bjp+dvwsjKkopBmYXCLVxpHG0LJEZ1dtOj80DTe16aBxdvF2PlrfDanEUgZYL+9FCQAMw8C4Ei/uOaIWX9vFuWvJZBE+H1AzOvbIdYmI/ZlYUYiF134J5+09EWWF5gwRDMOMOCxKCoYB/GzfSnxrQQXKefaH3KGsApg8FSgsQnlxAc7abRw+/ulR2GWiu3MaDMMMHyxKhEKvgcvnlWCPiiiMgfY/mczDXwhj3ATsufNk/Obs3VFdysN1DJOJsCgR+sJR3Pn2JixbsQGitYW6mSxG+HxY2lWA77++HS09zg8aYxhmZGBRIvzk6TW45fX16OgOxi4rbtzGV7zlEB0hgUfWdmLB3avxyfZu6mYYZoRhUQIghMC29j5cfP8K3LmoPmaUp5Q62oGm7UAkolZhspz6rgiOfHgD/v1ZOzqDfDMLw2QKeS9KQgis39GN7z6xCs+vbI4Z5dQyBmK9pI52oHl77GZMJmdo7IngJ4va8bP3Amjs4s+WYTIBIxAIWGNTbu+wRgp3WWd6zs2tvbjkP59gxbYOhMLmL2bzsmFrW5hCVVgEjJsQe+AckzP4DGDeKD/+cewE7DOhjLotkh1LknQenxLO6Q6Zc2mLgauXeHhGhwyj0mtg4ZHOPwDzuqfU0NaH4+5YhmUN7QhFRHwPSSKnqRFRoLcbqN8IBINKAJPthAWwfEcQxz6yEfev2IFwlFsyhhkp8lKUQhGBdza04qS7PsKW9r5+MZIYRrzNUIb0QkFgewPQ29PvZ3KC1r4ovvHyVvz4ta3Y1sk/PBhmJMg7UYpEBV5d24Jrn1iNjS29Su/IFKI4MVLKUpgMAH19savyujv7Y5mcoCss8IelAVz49Ga8X9+JKF95yTDDSt6J0v+WN+LaJ1dh/Y4eCHneiPaUqI0O6xkAgn3Atq1AZ0f8XFNOCzQ2N750LEOdX12Gc1/pWMjrjQpg4aZufOXpzXjw0xYEIzKIYZihJm9EKSoE7lmyFd98bCUaO4NmWyR7R6rwqL0jjVhJZTIARCPA9q1Ae6u7e5mcQpx86WCo86sM577Sgc3r3dAexqXPb8FNb26JnXNkGGbIyQtRausJ4+Y3NuGGF7+I7+1IZHuj2qgwGYYpYso2ELsAornJvTAxWUUoKvCrDwI48eEvsDIQRDgbnrnFMFlMzotSTyiK37+xEX95dzO6QuQGWKktsrek9pyg2NXhO912NALsaAYCzQBfuZWTvLypBxe92IynvuhGb5iFKStQhmRtF7dxukXWVdc0X7JyMrvqU7GLoXGqfSCLU31dfll2Wichp0WpozeMbzy+Cnct2RK7a1/7pgjAMB1SjGSPSDWqQ3lxw3pmbDQCtAZisz+wMOUka9sj+N47rfjNohYE5T1tTGai/a5rcBungza2tLFWfXZliZ0dmvy6WNWmxuliU8Gpvi6/+lqd1g7krCjt6ArilDs/wFOfN6HPOh+g9nLUaAWiN7G1IkyWIJli5JF2mLM/tAGNW3laohxEAGjpi+LPn3ThpCe2obE74uY7xjBMCuScKAkBrG7qwoX3f4i31u2IV3ND/lHESZbjhErT1MSJlTLc169c/ZudHTFhCof66zA5xeIdEZz05HYs3NCt/OhhGGawGNFo/5lbt9N+IIWpP4Y756qmblz95Gos29KJ/n+NNBpW0dxQ3dbFCoJ0OZUgyy7rm7EyTvqLS4DaMUAhP7snVxlX6sMVu1bhe/uPQak/9hvP6fikpOOYp3BOYFFjBJe83s3TDGUYFR5g6VnOT/fOqZ7SB5s7cM4Dn2Lplo7+mx6tHo2CVVR7TIpJrSPLceeU5FrpJcmekjrE19PNsz/kOFu7wvjd4h049X/rsC7QS90Mw6RITohSVAi8srYF5//3U2xs7e3v08RpkVthslQpJi5qL4qkiNnUoT+NcAWDsaE8FqacpTci8Ep9D47+7wa8vqEdEb5sPCPQfQpxgx8amzXgoSlLaAz1ybXdPuzWTvFyW7dvmoOW1RgVOx+1q3npooPWU21uyHpRCkeieGFVAN95dg2au81zOPQd0AlOgp0gTbor7VS/4or3KbHBILBtC9Dd1R/P5Bzr2kM456l63PNJO9r7+EKXTEDXiLppNHVlNV7adD4aQ+12a7lN7XS/1KeuJTSnXKuLtBk2dnVtB82pq6ezOZHVohSJCvxr2XZ857m12NwW1CiFHTbCFKdZSlkOyVliYwbR3clYq64iTOEQsH0L32Sb4zT2RHDDB+34zhs7sCbQR90Mk3FkWmuUtaLUFxH48zv1+NnCdWi0ZnQWiUIhiRMcgipEUlBUh1q2BEnx0fNN8r4nSGEyc0YiQHNj7H4meXEEhf6ssFtL1J8n1K6u5bZqVxdKMp+ubLcvWqZric6uvg4aL/3qtm4/dFu10UXa1bXOZrcG0BsBHl/Xh4te2oG36nt4UleGSYGsFKWuYAS/enUDfvvmJnRbl9coX/xkAmTEbRC7Uo7f6If2lKgwqT4gXqSi0djMD20t8VftyRBD09Dp1modarOLV2MpuvpQXg/16cqqXaIr07WbPBI13ilW59PVpaix6jrFz0UAWNkawXkv7sB/PutAiM8zMYwrsk6UAt1B/Oq1jfjn4i0IRgZ5vScVImmTRsuvDt/JONMZ12NSfXa5EROj5kYg0BSbCULi1FiOFJn2ekaCQXwunSGB77zdhu+/sQOb2sMDTcMweUNWiVJDWy++9vBy3LlkC3rdTPNigLQoyk9ZQ/lJS7GEiaoKNUvxUdZ2w3uyngf9+24NAM3blZtsdS8mGxjq1z3U+YeWiADuW9WDK15uwtv1PTypK8M4kDWitCHQgwvvX4bHlm9N7TECllDY1NHoTgJxImQu1qZ0KoksEVJESueHADrbgaZtRJjURWeji5uYoVyGev9u8tvF2NkHu7jNG4sTEFjaHMYVrwTwwGftpp1hGIoRCATkN8f1HdZI4S7rdORcF+jB1x9fhSUNHdTlnmQnm4WpGzRMWH+IT53FQZbNJOpMD5ab2ATxF5cCY8YDXm+/jclNBHDxzhX409ETEe3p7P/d4kA6vkeUXM65NGDgqiUentEhw6jyGlh4VJia48jonpIQAiu2deKKR1cOTpCg9mhsiHNLtSFX88XFKL0ly2kWrM4R6R2pTkP2mMxyTxewdRPQx7MC5DwGcO9n7Tjhv+uxdHtPaj1/hslxMlaUokLg5TUtuPh/K/Hh1k7qHhhxw2k2GNYfE50wmb0i2ZYkiJByUQQVJus1qEOApr+vLzb7Q0938p4dk9UIAO9t7cHXXw3ggc87EGZhSj/Kb8uky2DidXV1Nje+gSz0tbjJ7yZmsItuHy7ISFGKCoHnVu7At59dg/UtIzU9j414Cdj7QEXIxmadUzLtqlgG+2I32fby7A+5jgCwrj2CH7/fhm+/3oS2Xp4FYsRw2WBaqPG6ujqbxMk3EOhrcZPfTcxgGeA+Mk6UogJ48rNmXPP0GmztkDfFpplkvSULtRtDoC4D/Z+CJTia3pCKKkzqZiQMbOUeU77QFRZ4YG0vzn62EasDQfDFeUw+k1Gi1B2K4oGPtuHap1ejtdf5ZNigcRKmBBcRDlVMVMExDCJM6gYZOpTbMpeaE+aTbLfUxx4ayE+yzXmEAD5oCuG8F5rx5NpOfkYTk7dkjCgFukP4wxub8L3n1sYeXW6H7J7SbqqdnfrlNqQwJChQDGqmImaJiCouZpyiQxYy1FGYyPkmEY3dZNvWwsKUJ3zRHsZ1b7Xg5+8G0NjNw3lM/pERotTeG8YvXlqNvy9qQF+YTL1DF0oyO/WrwmTZTXFQbbSOUOIkpNhfJsJke05JbqvDfEqvyVCmJdrRxEN5eUJrUOCfn3fj0peasCowREPYDJOhjLgodYciuPbRT/DnN9e7m6VhyFCEg7b9qsBQpIDosDHHCxbxQREmuRYi1ltq2h7fY0omuio0Vl1Tn+pPFuNmP7QO3dblcLumiw7q162pn8bo4lK1qWvVrtlfKCLw7tYgznymCa9t7ObLxgeE7kOwecMTPhhpo3ZdDgqNUfdB6+hi6Jra7LZpHSe7zi+x86tx1O+0TfM7M2KiJITAxkAPzr/vQ9y7ZHNmzKRMh+hULJdGSVRhiotTBYieU+rf1JZVpK+9Fdi+FQiFEj9neiyoNl2sXNP90jy0rs6ebD9yW5eX2nR2pzVFzaPmU/1ybTj41W27PKnaaD5drFybn0t9VwQXv7wDv313G7Z2yFk/mNTQvdnSTte6D0e12X1hdPVU7PKpyDJdU5vdtrqW2NklNBeNU/3yC6PGuNmWZVpXz4iIkhDA8i0duOzBj/DEJ1upe2RxEiZojkmJJUzK0JxVVsVIbqtDdvHh/QUZr+Ts7oxNSxRKUwOV/BjJXTL5f1deW0dI4OfvNuHrz2/G8u3dmfEDLm/J5/d+eP53IxrtvwDV7bQfSGHqD13ONc3duOKRVfi0qStzHx3t5ouvi7FMdLJXUrbqKvaoeaOuVTb91sqMNQygwA+MnQgUFJjBTK7jNYBJZV788eBqHDq5hLotBvPdtCPbci5qjODi17p4mqEMo9ILLD2rgprjGNaeUlQIrGrqxhn3f4Ll2zszV5Cg9miciOva9JvkBu35aMLjekHqPgVJb5h+wxS0YB/QsCH2qHUmL4gIYENHBGc/34xbl7SgO5zB3x+GGSDDJkrBcBSvfdGKk+9dgc1tWfKY6GTCZOe2xIQGmGUpMKrdKqox8SarIMuRCLBtc2xIT9drY3KSUBT45dJOXLWwmW+2ZXKOYRGlvnAUj3/ajGufWo2mLvrLXhnGShizjBvv0tjcQHPQ+tKmLorPjTBZFzHoYmkPSSmoFz8I0mNSt6EKlDnEJ8uhUOwcUw9PS5RPhKMCz2zsxVcX7sBrG7upm2GylmERpSc+a8YPnl+DLR19NgKgEw7VR+NoDqeF5qD1dZC6Oq2hWKmUYEs8NAlUkyVCao9JIU6YNPnDIWB7Q+zqPCZvCEcFVgTCuGxhADd/0ILQiN5SwTDpYUhFqScUwV/fq8eVT6xEe1+W350uBUAnGnCwQxGTuByKAMVpo9LrUntpqjCpPSkpmtFobIbxtgAP5eURQgi0h6L4zbJOfG3hDmzpCNn+1GKYbGDIRKm5K4ifPrcKN7y8LvfGvA3oe16GfMy6HVTV1KE9U4SkW27rhClWUPxKnh1NQEtz7HwTkzdEhMBTG3px8Ys78PqGjsy+iIhhHBgSUWru7MMPn/kcf3t3Q+4JUhw2Q4Cqdqg2VcxkjDA3rDpqD0kRHqunpIqXlbQ/FtFYbynQyD2mPCMqBJY0BXHRM5vx+3e3ozPbRyeYvCTtohQMR3HB/R/i3sWb0BUc4pm+R5K4XouGOLcUL+X8lNQLS1yoxqhiowiSxOpJqfVMfzQam11862buMeUh9R1h3PReEy5/ZtPQPf4lG5DfMXWt+x1pZ9Ntq1A7za+Waaz0y7W6rfp1vmR2FbsYanfyqXZdvG7bLsYFaROlqBDY0taLI25/By+uasyPubrUHowdUizUt0MrWAoJwqRAhSlubf4xEOsldXfFLhkPp2n2ByZr6A0LPLy6A6f+bwNWbO/J3+E8uwZRfu10Dahah27bxejyU+zqq37dtlpW7YaN3W4fTjmdfBQar9u2i9HlIxiBQMAKc3uHNchd1lEBfLKtE9c9sxbLtrbn36hRsn/Y+kBInFCcuhTSb/mUbZlLzWnZzD8CsSO3uASoHQP4C/tjmbxhbLGBH+5ThZNnlKKisP936EC/705kSs6lAQNXfWDwjA4ZRpXPwMKjnUdv0tJT+nBLB7719Bp8tK0jod3NC5L1mOJcak9H/lGG4uKgbya9EEJZpM3KJe0idg/T9obYLBAw09KForPBRT0n1HhdfVqWSDutYxcvoa/TbluHWle3yBi7OmqZQuN0duqn+0xWV2Fbj8D177TiJ+8EsLk9BJGXX1ImWxi0KC1p6MB5D32Kj7fyFT/JSVAdRYwUQaE+K0YkxkjihvCkTSn39eGw4g6cMr1EW13bqFGb7uN1iqWLGqfW1/l1dlrHLl71q3XstnWLE6bWAw51nPahoubRodbRrXU5pU+uBdAVEnhwdTcufL4Ja1tz+Fwvk/UMWJSCkSheWduCL9/3MRo7gv3fC92XRPfFcvLRL5udXefTQfPooDl1+XSvKW7bbO7V+modS2C0stCP5SZxsuejuhJ6SnId2zYMA5XFPvzw6Gl45Ird8efDanDFrmUo9Jr10wF9n3KddP+/6c4nIXnDUeDjHWEc88g2PLW6E908tsVkIAMSpd5QBA99tB1XPrEKnX3mgU0bcdogS5sbn4qTXedTc+tiqI/GqLlovGpTfaqNCokOES8cgEaI1LJBhu0sl/LiqN+I/ZlTV4Jbz5iHq4+YCcMwUO438IN9qnDFrhXpFSYma2gNCXzjtQBueH0rNrcF83PInclYUhalqBD485vr8YtXN6CxM48vN3XCTU9IJ2K2whRv7s+vGe4z/R6PgeN3qsHd5++GE3Ydg0Jf/0ddXejBD/apxK8PGoWyAroTJh/oiQB//TCAi5/ahOXbee48JnNISZTCUYFrHlmBnz6/Es1dfJmxI3JYzU6g4sxEmMxeTryLlGXvyfDE96QAlPg9+Onxc/GP8xZg7tgyeD2JH3Opz8AF88rwm4OqUcldprykNyzwRn0PjnpgHf77yQ7qZpgRIbG10iCEQEt3CFf/bwXueHcj+njix/RgCZAsEJ8MoDG0bG4bHgNTa0twz4V74f+On4cSv7PYeA3gnLlluPvEiRhfxg8LzEeiQqC5N4pLntuCH7zcgObuEA/nMSOKK1Ha3hHEtx/7BPcu2YwIH7GpY9dbkti54zVH2UgctvP7PDhm7hj874r9cMaek1HgdfXRwmMAp8yuxN+Om4DpVX7qZvKE3rDArUsDuOzpenzMw3nMCJK05WrtCeGrD32MBz+sR2/I+aYnxgGnoTxIrTEFh9rVHpIqTma5usSP7x85C/+6aC/sOWWU4250eAzgxJkV+O9pU7DH2GLqVqBXeziVpc0NygUbCXa7st02RZdX2nXbqk2tq4uBgx2afas5dYsaR9HZJLQujU1WjhGMCjzzRTvOfWIT/rM8wLd4MCOCoyh1ByM49Z8f4LnPt+fHtEEZg4MwxW0aqC314+/n7I4fHz8PdRVF/TEpYhjAnuOKcf8pk7Hn2GJNgynMHdNGT/WpZRlDc+gWFWq3K+u2abyaW2fXbdN60qeLcbKrOWjZDqecOptcnD4XWnbOJQCsCvThGy824EevbkVnkH+IMsOLEY32/xxSp/0IRqL4+cINuGNRA8L8iym9JBsCtdwkTvTb/F4PZtUU486z52FOXVl8nInb6VnodC/r28K4+tVmvLe1j74CJo/wGMAxk4rwm4NHYZdJo131wOmx5MRAj08nZM5FjRFc/GoXTzOUYVR6gaVnV1BzHNqekgDw7oY2PPpJIwvSUJDs260O0SXYDVQXF+CiPcfh6ct3txWkwTCt0od/HDUax04tRoEnyWtlcpaoAJ7f1Iuzn2nE06tb0csXODHDgFaU2nvDuOP9BmzvDCZ079OzQGMbyWUEXk+ytt5GmMZXFuLXx8/ET46egariobtibnyZF38+vBaX7Zzm2R+YrGNlaxiXP1ePX721DYEenqKIGVq0orS6qRuvr28ZwokbhyrvQBmh12MkaE48RJh2qivDkxcvwOnzx6BsGJSipsiDH+5XjUt3roDfaz5+g75VsqzRXS1qvLqW29SuW9M6urXcVhedTY1XoXaag67tFlpXB/Xr6tG8dj6JnV+NUVFj5VrZbu6O4LeLmnHpUxvRmi3CRP9vusgYHbo4XR2ak8apZdVG/WqMCvXp6sttanNbpj6aV7eo0By6bV3ZBq0o/fntTXwv0ohAP/HY49XLCr24dN/JWPz9wzCjtgTeYRxSKysw8JP9q/Ct3StQ7DON9OC0O9jogSyUc/LSr8ap9ZzWcpva7fJJdDYo8epC7Wqsbm0HratbqF9uq3Y7BPlho8tJofuXOZLsOxQReGptJ/a6azUW1XeiL6xLnkWo/y9ddHHqti5ORb6nalmXR4W+BjWHU331Nak2t2Xqk+hsUI4Vuxy6bbtcGhJEKdAdwhvr3Z9YZNKAAdsjZlJVMX5z8jz86fT5SW+GHSqKvAa+t3clfrJfNUaXSGUaICkcnIxL0vGeppBjXVsIJz28AbctbsSO7izpNY0EKbyntqQjR7oZ4teUIErvbWrny0BHAs20RHtNrMLDl+yNy/efivKiQYrBIPEaBi7ftRx/PW4iplQO3bksJjto7ongprcb8Y1nN2FrB085xqSPBFF6bS3PgTXSeD0GLtt3Cl655iDsO3UU/MpkqiOJz2PgtDmVuP24SagdbI+JyXo6glE8tqYD+969GkvqO6mbYQZEQmu3srHbfjyQ2qmN+tQyjaM+GqPLY7emi2qX0G0ar8bQPNSmlnU2uq2DxpnLmLJC/O7knXHrGfNRXph5Db/HAI6fUY7HzpiKKZUFSa9uZ3KbqADqO8M4+qEN+NviJnTIR9kwzABJEKX6duWR2Sq0kdbZqM8pB/VJqF2NtVtT7F6H3X6d7OpabtNYaqPbuoXEeQxgvynVuPf8PXDNITNG7PyRWw6aVIqnz56OvceVYBivu2AylNa+CP7v9W346bst2NzOw3nMwDECgYDVNFZVVaHuRy+gudMUJmZYKPJ5cNrOo/H9w6ZiSrXzVEFu74JHCnfCDzSnALC6JYzr3wzgrYZenqyXQYHHwPzRhbj5qAk4eIrzjd1DeXwuDRi4apHBMzpkGFUFBhYe7XzNQkJPqdDLP3uHk1K/FzcdPxc3nzw7qSBlGgaA2VU+/OPoGuw9hmcYZ4BQVGDp9l58+ZEN+PuSZgQjI6cK6oCEzQBFgk/12/nsfnrReBqn89F96bYldN80hvrURbXrYqjPzk+37fJRXyokiNKEyuxqGLMVr2FgRk0pHr1sH3z3iFkoypCLGVLFMIDaYi8ePHE0TphewrM/MACAQG8E331lK779Qj22d47ccB5tGGmjSn2q386nlu0a4GT70a3ttmkOtaxb0/1Ruy6G+uz8dFuWqU2i5rOLoSS0hDuPLacmJs2UFfpw+oJxePGbB+DouXXUnZVUFnrx9yNrcMnO5Sj1cW+bAbrDUdzxUQvOe3wj3t7UgXB05HpNI43bBpnRiNLBM0dTE5NGKosK8OOjZ+O2Mxdgem0JdWc1pQUefH+fSnxtQTlKChIOLSYPiQJ4dWMXLnxyM/71UQDdfJKHSUJCy3HsvLphncYmn6gt9eOZr+2H6w6fidqy3DwHU1XoxfX7VuE3h4+nrqFnJH+OjuS+kQH7t8N8XRvaQrj6xS340SsN/PBAxpEEURpTXoiDpo2iZmYQFBd4cdTs0Vj6vUNx4PRROS/6XsPAVXvV4B/HT0Rdia9/FiXaFskyHXjWxco4urazOZUluhg7m84vEZr5wHR57MrUTnPr/HShh5RdDrmmC/XbxSXLK9ea2L6wwK2LAzj4njVY1dzDj8VhtCSIEgBce+gM+L1aF5Mi1cUF+O5hM/DvC/fEpGqnR43nHpfsVoN/njAJ0yr9MORdtrTBcmqXdI0hXdNtFWpX6+rySHQ2lYHmsStTu7Q5+SkyntajOexyUb9dHJLkFUkmIgXw3pYeHP/AOjy+ugvdIacdMfmIVnkOmj4Ke01yf28Ao2dKdQkevGgv/OCo2agrL6TunMdrAMfMKMc/TpyEyeWZNzsFM0SoOkN7cCbr20K4/q0W/PKdHfxEAiYOrSjVlBbiyoOnoTTDZxXIZA6eWol3v/0lHDV3dMbPzjCU+L0GDptShtcunIkJ5TyRa97h0BEK9EZwx4ouHP5gAxq7hmi2cdlT0y12qH5dPC3rbLSeLp7aaR3Vrq5VO13UOBpPbU5xTtB90TKNUe0u0IqSYQDH7zwGJ+08lqeQSZGKQi++sd8E3HXWPIyrLOoftspjDAOYWuXHGxfOxO5jivgR6/lEko86KgQ+b4ngyP9uxfNfdKE3nc9oSpZKbVBp4yr9Kjq/nU1Flmk8taski6XxEqd4anOKc1ok6rZapjF0H0kwotH+s4102o+NLb346iOfY3F9m2KVZ3TlWrXr0L0KOuhM7TK/uq3LgyQ+kDxuUPMly424/HNGl+OHx8zG6QvGocTvS3g/nXA7lUo25xQi9iyeH7/dglc29fKJ7nzA9iM2HdIvgLoSL76xZw2+fUAdKpRHteiOJTvk8bloewQXvdLF0wxlGFU+YOk5FdQch7anJJlSXYS/nz4XO41W76dRjqI4hM2iw86v2ui2HU4+2OzHCTXWTT0Brwc4avZo/O+yvXHeXhNR4ufzJzoMA5he6cMfDh2Fo6fk10UfeYvdb1WKATR2R/Dbd5tw8gPrsLq5l0YweYKjKAHAtFHFeOLi3XDgZHe/kPMNn8fAFftNwcOX7oNdxlXAw8N1jhiGgQllPtx3/GhcsgvPHpLzuPldp9AbEXhzczcOv3ctXljdhihP8pt3JBUlABhd5sefT5uDQ6ZVw6u7tJd2LmgnR93WreU2XajdKVa3OMVTu1pW69lgAJhYWYzbz1yAv5y5AJXFfBI/FTwG8MuDqnHV7hUoz+MLQRgdAls6Q7jgsY340zvb0d7nPKs0k1u4EiWYPabbTpuLcxaM6RcmFdqgSxvd1q1pPQm1O8XqcIqndvpa6etTFr/Xg8Nm1uLhS/fGFQdMzfmbYYeKIp+B7+5dhR9/aQzK/a4PRSabGMRXY0dvBD96ZSu+81IjVjYHwZ2m/CCllmBCZSF+edxMXLrXePjytCH2ez24dN/J+NcFe2LfqTzzxWCp8Bu4cq8a3HLMRH5sSj6i/cj7jcEo8NjaXlz2zHa8ur6LL47JA1ISJQCoKPLhpmOn48bjd8raxy0MFL/XwK2nzMFfz94NE6uK9d8nJmVKCjy4ZEE1XjxvOqqLeCgvp7DVEOU0gLpOLABC4PNACBc9vR33fKheCczkIgNSlUKfF986bAauP3oOKpVLN3MVv9eDBePK8eIVe+Ds3cZQN5MmDppUhv+cNgXTqvws+OnCVhRGGqcXRgTLLHeHgetfD+CrT27F5rYQT+yaowxIlGBOMvr9I2fhz2fMx7iK3H0wYKHPg3MWjME9Z8/D/HF8tdhQ4jGAI6eV4a6TJmHn0UUJ5/LSukBjo34J9Q0kji4yPtV6yRaaT4XG2tWhSzI/XdR4J9RYimpTfqFEBfDo2l5c/MQ2vLGhG8GIrjKTzQxYlGA22OftPQl3fWV3TKzKvftOKgq9uPnE2bjx2BmYOqoYuus7mPTi8xg4eHIpHj59CnapK9K0drBp+XTbDq1e3FlzNd60CzNG0FxqHbUazadCy4rJctEYdb/0NdB9KYsun/V/qD4lV1wdui+zfty+6SLtunhZNtfWIn39YRb0igZSFkLg46YQrnquEXcvbYnzMdmPEQgErE/c7d360NxlvaS+HZc//Bk2tebGTW87jSnHgxfvhfkTKqkr4X+3YzDvpx35lHNHTwSXvdCEN+tz45jKS3Sio6LzWyKmsckZGhRhO3lWGe7/ygyUFfbPorJ0h4ErFxk8o0OGUV1gYOExzpf4D6qnpLLXxArcedY8zKotyeoeRXGBF6fPH49nvr6/VpCY4aOm2Iu/HFmLo6cWI8+uqclv1PZD7XTpBAzA02s6cOjfV+HdDR0I8XBe1pPWr/peEytw37m74JBp1Vk5s8HYiiLceNxc3PGV3TCtJrceVZ6tTCr34ebDanH+vHLwFeN5gqoryT5zczTww209uPCh9bh3WStC/CiMrCatogQAc0aX4NZT5+CIGdVZNcP4gvEVeOTSfXDtYTMwqiQ3H1WerUwo8+LGA6vxnf3qeIbxnEJ2g9SuUAo9HeVQEAJY1xLETa8H8LUntqGpM6RGMllE2kUJACZVFeGOM+fh+Dm1SX/ojDQeAzhiRjWe++YBOGD6KBTwE3czknK/BzcdOhY3HDwWxTyWlwNQ8VHKcY0GESpdg6K4O0NRPLGqC998ejsi1vknZa3TQN2i1rPbpmsVmk+Xm27blSWqX7XZlXV2O5tah+5X2mlZt6ix1Edz2DBk3+6qYh9uP30nnLvnRBQXDNluBsXoMj++deBk/OvcXXL6svZcodDnwXX7j8aNh45FZWFmHlMMQSciyRDyj6YVE7C5EELZBtAXiV0+ntBQSmiZotaz26ZrdXFC9dNYXdluvzQPLevsdjZpV7d1+7arK1FjB8iQfrPLC73451d2x/ePnI3qksyZsNRjAPPHluNPJ83G9UfyE3aziSKfB1ftPRq3HDMR4/lJtjkKadFoz2kgQsdkDUMqSjCvZvvu4TPxw6PmmDNpUzlW13RblnVSTeva+eLzeQzg8BnVuPOsnXDMnBqeTDULKfIZuGD+KNx/6hRMZGHKPehFUtZ9T+Z3WfdVl1Xiv+5MFjLkogQApYU+fPuwGbj19F3h93k0wiHXdFs9wnRHG82hQusK+DwGrjlgEh44fz5m1pawIGUxHgM4ZEop/vPl2LRETIai+2omQw7PqV/PhDy6NoLJBYZFlADA4zFw4T6Tcf8Fe2FCZREMGInHlW5bF0Nj7eLNxWsYmFVTgnvP2Rk3HDMjb2c4zzUMw8CXJpfhodOnYt5oPieYkQzmq2Z9h80k9DsP2kPiob1cYNhESXLG7hNw93l7Ytex5fG9dCowOlRBUm128cpw3T/OnIejZ9dQN5MD7D2+BA98eSqOmFaWVbch5AUO301b6GdIyypSjAa0IyYTMaLR/ql27aZ70eF2GhldzkhU4KOGDnzzsc+xprmbutOGz2Pg+qNm46pDZ6C21A+DjlUr6F6nHYP53+3gnMlJlrOhM4z/eyOA59d3x668YvoRSRr3oYL+gIT5Ouj8dhJLZNQphXQ2c5oh1Sf67cVlpRg7fZIZzGQKVQXA0nMqqDmOYe8pAYDXY2DPSRV47OLdMLO2JO3fFcMA6sr8uP+8XXHjifMwuqzQUZCY3GBCmQ9/PKwGx00rjj0dWf0BrW5LqI8uTjj5aV512y6/GifXagz1y207u+oXZJgrWay6qHF0UX0qNEbn12HZzc8uzqapZzfSwmQ1IyJKkgmVhXjhit1x3JxalKXpsuwCrwcHTqnCfy+Yj6N4uC7vGF3ixW1HjsZF86tRKG+ypQ2bU4OposbSesn8NE6HXR1al9pVm52d7lNXxy6WNvbUL6E5ksW6Rgk2kvTwpM9IdR9MpjKiogQAo0r8uP2MnXDjMTMxt25wzyuaWl2M6w+fir+fOQ8Lxpc7HstM7lJZ6MGtx03Et/etRWVhen7sxJHrjd+I/38uv7lUBF1WYzKbERclAKgs8uH8PcfixasOxG9O2QWzR5fREEfGlvvx3YOn4H8XzseVB07C+IpCGsLkGaUFHvz44LH4+WFjUcWPWB85hkvghms/zJAzIhc62CFzBsNRvLc+gP8tq8ezn25Dc3cIyssEhEBNaQEOnFKFE3YejSNn1aDIZiqjoXydyeCc7hjKnJGowG2Lm/GjV7eimx+uM/w4igVxWkX1Iga5NgvJLnQw24ni0hKMnTHZDGYyBTcXOmSkKFFae0Jo6Q6iOxiB3+uBJ9SN6pICV4/HsMtJScfrpHBOdwxHzsdXtuHaFxpQ3x6MszNDjK0oaRy2oqSIjmpTRUluW1ffsShlIm5ESd+9yDCqigswraYUO4+rwKy6MtSU+l0JEsNITptbiX+cOAk71RYmzGLDDCEDeq9pJbNMzRa2DiYLyQpRYph0cNSMctx76hTMq+VzjsOGpkNky0C1RXk0usVAczEjDosSkzd4DWCv8SV4+MxpmFLp53Yr06DDdaqNblPkh2nF8KebrRiBQMD6GOk4vBNux/c5pzs4Z3LSmXNbVwTffKkZ7zT0IsTTPwwdjm+tjfiA9H7oeSPVH7UCTD+fU8pkqgsMLDw2Qs1xcE+JyUvGlnpx21G1OHVuJfxe/lU9/FAVUnEQK2lTBUradKixmbaor8/Na3UTk45lKPfjAhYlJm8ZV+rF7cdPxLm7VPNErhkF+TBSbNRiKFMVZSrq63PzWt3EpIPh2o8NLEpM3mIYQG2JD/88aRLO33UUCliZRg5DPS+ktIq0gaRlCX90OQOLEpP3+DwG7j5lMn508FjUFJuzP6i/zO3WctuurNtWFxpDyzTeri6tr27bxTgtujhZpqg+3ZIKMl5OpguN2NCyJOE1prpzJlNgUWIY87lb391/NH56yDjUFPv6HbSxo42wRFfWbavQGFp2gvrV+jSXxM5O0cXR3HR/g4HmSsiXYOiHipThHM5kPixKDGNSUuDB5XuMwj2nTEaxj7Z2zJDgJEZ2Nl2ZP66cgUWJYRSKfB6cOLsCL144E9VFXp79YbiIe5+p8th8CDZmWzuTFbAoMYyGgyaV4qmvTMf8McXw8gUQw4zyfju99VS7mJyARYlhbNhvQgnuOHESdhldRF1MulEFxu5R6TqsK/YUWwrVmcyDRYlhbPB6DOw1vgSPnzMNe08osTkBojvxodp1raXqo4saS+Pd1qVxsqzaneLsFlqHxssyhfqUGKeeEMxQpxiZSidOTFaSFY+uoHBOd3DO5LjN2ReO4txnd+DtTV0I87RE6YNqHRDrKRnmFEKWXzPNkKyjPsbCmmaoFGNnTJKVs4pkOpzNVBUAS8/NgUdXMMxIU+jz4D9fnoqzd67iK/PShqJIQlEcQ3E5vdWqSCUg+vVLE6ra6OLkd6rv5KNx1Obkp2W7RY2T28lsuvp0Tbd1i66OrixtTrAoMYxLxpUX4OZjJuLS3Wupi0kZ0mRZ4qM0W4ZZNkhTRs85ObR01OWmYXTyO9V38qm4iVFxG6/Gye1kNhXq19W1Q1dHV3YDixLDpEBdqQ+/OWo8bjpsHM+XN1QI8486RBeH+cYL0hqqZSZrYVFimBQpLfDgxwePxd9PmozyQnNaImZwxImJk7KYyqMLifuRwL8YshUWJYYZIOftWo3fHTUe48sLqItJFTsNSbUnpBsGTBfJUibz6xhInWzGxf/LosQwA6TY58HFC0bh7ydOQrWcyJUZGHaNlSVE9NwSVSvVRly6JZlftySrk8yvWwZSJ5sXF7AoMcwgKPR5cNzMCrxy4SxMquAekyucGifpk42Y2oNKqKcaEpzOpBjODB8sSgwzSLweA7uNLcaz583ArmOK+QIIt6gCpK4TxvJcKohA/KXlTFbCosQwaWLnumLcefJk7D22kLoYKL0fua2uHTFFimoVtRk2MUxWYQQCAeuwcHsXPFK4E55zuoNzJicbcgohEBAluPb5ejy3tp268xOt8JhG1WcJFfEJpRBVYtR4uW3OtlFcVoIx06eYRiZTqPYbeOW4CDXHwT0lhkkjhmFgxqhCPHDGNJyxUxX/cHeLVrgkGgFLCr/z2QqLEsMMARWFHvzj5Mn42p61KPTmcQPpVkjihuGUgqBOgm1+WweT4bAoMcwQUVXkxc+PGI/Ld69BkZe/aq5RpxEywAKTZ/A3hWGGkJpiL3515AT84ZjxKPfzvUyuSHjcLy3bEHcOislWWJQYZogpL/Tgq3vW4o/HjEeFn79yWuKERCkkExg7vRJ2DibT4W8IwwwDPo+BS3avxZ2nTMHYUh915y5utUGNU4UoWf1kosVkHSxKDDNMeAzgyztV4fYTJmFqpZ+6GUnC8J0NQlmYrMDNJ8uixDDDiMcATp1bhYfOnIrdx5ZQd/6iCgt9XhJFCpGbFo7JKKpc3FfOosQww4xhAPtMKMW/vzwF80fneI8pib5oSRjKUx93rvgoyfzMiDO6OLnkJI9gGGZImDe6CHcdV4d9xvr5R3+CEKnDczbvTlzvysxhE8pkBrOrk1+BakSj5rwcLqdRkbidnoVzuoNzJidXc25uC+Gbz27Ci2s7EE42dCXJluEr23/HdFABkgW1LHQ2tZw45VBxWQnGzHCYZki+z27PX7lFiPTnzGbI+/yTBVFcspvz94h7SgwzwkyqLMBdp0zB5XuYN9nKxtZpgcaWiYsOGpMs1s5J234aJsxHqusWNzE0ntp0i9u4fFnI+7xHTb/JDhYlhskA6kp9+M1R43HJbtUoyLVnX6iiQ4UjGYb1JxE1lxy6SzW/W9QGlhkQdUUCk8qSv48sSgyTIVQUevGHYybiewfUocSXg1/NuPaICI3unFIydFqlszEZwcFjAI+Loc0cPPIZJnspLvDgxiPG4cbDxqG2OAdusrUVGOKgvR51bQfNTctMxlBgCBw3OdkHGoNFiWEyDK9h4Jr9R+MvJ0zE5Iosv2TcXTuk7ynZioyNYyiH75hBMbfKwFQXQ3dgUWKYzKTAY+CMeVX4ywmTMKooi3tM7tohfU+J2i00SifjNC5mZPEawNETALe/r1iUGCZD8XoMnDSnAv87eyomlHrz6Epj+o9qlYnJEqaXAweOEXD7WDEWJYbJcA6bVo6HThuHBaMLkTsX5pF/JK6oiJBh/dFDXUmH/pjhxGcAx08UmFxGPfawKDFMFjCvtgC3HzMaB04ogjebuky2L5WoRlzRppLOLGhdTZkZMWZXAKdOjc356BYjEAhYH6HbO9aRwl3rnNMdnDM5+Z5TCKCxK4QvP7Qe79V3Kq20ekKFnlzRtdCqj27TeF1OCY2VkDzWpuY1yU2aSgjiM8uWTSmr9xBFY/bYjA6T++3MsFPgAV48tRxTK+L7PsmOee4pMUyWYBjAmLICPHv+DBw/sxKFHpDWnG7Tll4S17o7KAO1WSpgEytRfHFhDvVUvdPdqKp7GTo7kxGU+Az8av+iBEFyQ+o1GIYZUaqKvHjwzKm4bM9alGb6Tba0c2WLjdglTFejOhXs7MywU+wzcMFcP46b5vJyO0KGH9EMw+goL/TipsPH4cp9RqPYa36N1Xad9iBoma7VGJrHzqcru0HIP8pC81AxsuopG1aeVMSPGUq8BnD0JB+u2KUQJb6BfSgsSgyTpYwq9uEXR47Hr44crxcFKhZxjT5ZS2hZhfp0ZbtFjaHxFG3PiCYTgKGLkwysQWQGgQCOneLHrw8swaiigb//LEoMk8X4PAau3b8OfztxMkaX+GBk6pV5VIDstmGePLO2VQdBrWdQA03KDBUGgCq/gWt2K8RfDi3GYO/1ZlFimBzgsj1rcMfJkzGlooC6Rha32uA2TsUSLHWoj6ofM5QYAGZVAL/YvwjfnF9E3QOCRYlhcgCfx8DxsytxxymTMb50kD9V04mRpLejxUFUXOdyyMGkhWIvcM40gd/vK3DMVD/8yR8q6woWJYbJEfxeA0fOqMAzZ43D2JI0tRCDxW3HJe6ScLqtGARivSLX4sSkG58BHFgH3HeIwHfmA5NKYxc4pAsWJYbJIQwAU6sK8MxZ47FLjT97HhhoJ1yG9UexGf3x0iXXVp4h+r/tXmeO4/UYqCkEDqiN4q8HAH/aL4oZFekVIwmLEsPkINOqCnDXiXU4ZFIRfCMpTG53rcYlXKxBlYCWdSY6AwTptdHemN1C/W7q6OLd1lHjUqmXroXsz4CBMUXA6VNiw3S3Hmhgr9FiSI8pIxqNypeSdPoHFbdTqXBOd3DO5HBOd8icQgCb2vpw1bP1eHZ1Gw0bPqwWRsU0qj5rWyMoshCVNrWsTElkNmfFZSUYM32KaWQGQpUfOG1WIc6YWYApFR7H+44GcnzawT0lhslRDAOYUlWIJ86djsv3qKHu4UErSBq04kQMCfYUemKMa8p8wEWzBB47UuBHexdhp1FeR0FKNyxKDJPjeD0Gbjl+Eq7edzTKCrLgK+/U/qk+KlK0zLimwAOMLwHOnwk8fCRw7S5AVWFqs3uniyw4QhmGGSwlBR7cePh4XH/I2CwQJtoSKmUqPOown5ON0eIxgNkVApfOFvjLAcB3dhUYWzyyb16mH50Mw6SJqiIvrt2vDjcfOxGFcr68TCFOh5RGUZjnj+jwHhWehHaUChujYpg3vf58T4E/7gdcNgeYVp7wJo4IGXZkMgwzlJQUeHD5njV45rzpKC8Yhobb7S5ke0jFhuLki8N1YN5RUyjw490F7jtM4LhJwPhSIJMmm8+gl8IwzHBgGAYOnVaOfxw/BpPKfc66kWrbroqLupaooqPzATElixMn8xXSeNUm/wlah4EBoKwA2GWUB786oBiPHQmcNhXm87gyjwx9WQzDDCVej4EjphbjlqNqMbtamS9PJxrSpi403q6ebk1tNGd8wVlfqBg5xeYhfo+BL03w4cb9inHvMWU4Z44f5QN7zNGwwaLEMHmKz2PgkMnFuPfksZhTVaAXDTsShCQJyWItMSHnj0yTrcFWjBIq5RV+D3DQWA/uOrIEN3+pBKfM8KN6EI+TGE5YlBgmj/EYBmaPKsDTZ4/HgRPSM8tzHE7aoBVB0nAK809cHjeNq5uY3GS/sT787/gS3HtsOQ6c4ENNsTEil3YPFCMQCFgfd7I7bVXc3sHLOd3BOZPDOd0x0JwbWoP4xlOb8Mq6DoT7J3oZHNo0plH64sSJ9IJkmcaqdvXqPHO7uKwUY2ZMNo25jQdAVaGBmRUCl88R2KNWwJMwVVM/9HN3YqDHkhPJcnJPiWEYAMDUKj/+dtIkXLhgFNJ2xXhC20hEBroYEwEHp53g5Rdjig2cM7sAtxxSjD/uJ7DX6FjvN5tJ16HHMEwOMLW6EDcfNxHX7FuXnhmg3QiHXcxg9m/WpalpmZLMnwxan5bTRXWhgYt2KsS/jyvDD/ctxkETClCSQY/RGgwsSgzDxFFZ5MWvjp6AHx86DkVp6zKliNWaJ2nWpdsSsNiGMBdDCVHX6qLaJNSeil8ty/3rfKpN56N+GLEG++yZPjx1cjl+ul8RZlY6T5SajYzQEccwTCZT6DXwgy+NwQ2HjUVFuh4paoeuTdXZnJAtN6mX0LBT6DUUSepoxcIBNSYu3ixYudTECgKxG1snl3twydwCvH56GX79pVJMKEv1DcoeWJQYhtFS5PPg2v3rcPOxE1BXPABh0jSySZFtrVXXZeOr1lO3ky1u45ItbvPIOBovUcoeALMqPfjm/ELccUQJrt+3BBMrBvA5ZBksSgzD2FJc4MEle9bi78eNxrihesS61Shrui3UkKBRtAItDxNud+sizmMAU0sF/m9+FHcdVYKr5hdiTrUXOTZKZwuLEsMwjngM4JApJbj92NGYUDYEZ9PdNLYJPShpUx6NLo2095EleIzYg/X+b4HAf48AzpxhYFK5FwVpueIke2BRYhgmKYYBHDq1BPecVIdZ1S7mqUlFFKxYI16ghGmjqiXj5dpIcX8ZRrFXYKcqgW/tIvD0MQJnTgeG+jReJsOixDCMa/YaV4Q7T6zDQROL9I3HQHspsp62rmZYTy1THxJ1LBMp9gIHjAF+uJvALfsD58+KTZya72iPK4ZhGDt2He3H7cfW4ehpJfCow2U6oXDyUeTMDNQvTIXR+WB24+INpJxZeD3AbjXA7/cV+MVeAidMBuqKM/1VDx9GNNo/n0iy6R9U3E4rwTndwTmTwzndMVw5t3eGceljG/Di2nZEheg/n2OYApM4FqcvCvNPgo3Yhcyr+OOEqj+2qKwEY6ZlzjRDhnmP0U6VEVy1s8Axc2poiJbBfkY6Mj0n95QYhhkQY8p8uP/MqTh//ij4vfLEjlDmr5OKQdWGLIbilzpm0HrQlE0M2PsygCo/cECdwG0HCNxzqIF9x+TxCSMXsCgxDDNgqot9uO3kSbhm37qB32Qb19ORwhYfYhnixrh0ohfDSBjSG14M8wmvJ02O4hd7A7/ZB9hvTOxxIYwzLEoMwwyKMr8XPz1iPH52+DhU+F02Kcna5gTxIai9KxWzh+XxDsGl6y4p8gqcMTWCvx4o8H+7GThwjOALGFLA5RHEMAxjT6nfg6v3r8P3DqhGoZsOk05TbHs3OjuxqUN4BlBQ6OKy9TTiMYBCj8AJkwWeOBr44R4ezK4ycmaS1OGERYlhmLTg9Ri4cq8q3H5cHcaWulEmt+iG7kzibLGCAQOFJUPwwEINPo+BKeUGzprlw78PE7hpT2BMMY1iUoFFiWGYtPLlueX409F1mFntt+/8qKgxsoLak6JJaE5ZNteG1wN/8dCKktcAZlR6cfWCQvzt8BL8/IBSzKrMrie8ZiosSgzDpJ0jphXjr8eNxqwqFydTVAGSV+4lNO4JhkSxMimtrIDHm86eWjx1xcB1exbiX8eU4psLCrFTjQ8+bknTBr+VDMOkHZ/HwF7ji3DvqeMwvtSrk5TBQXpHltnjQWXd6HhjGvB6gLElwM/28eOtM8vxjflFmFhmsBgNAfyWMgwzZMypKcDLF0zEgROL7BvwgSiW7F3JtRG7DLx81Ch4fSn2knQXXZgUeQTmjfLie3sW4elTKnDRLsXw2/4jTDowAoGA9ZEku9NWxe0dvJzTHZwzOZzTHZmYc1NrEN9+dhOeXd2GYMRu9gazoPMJJ19so6ikBLUTxsPrUy55M2h+dxT7gN1qDZw6049dynsxrth2tNDC7n/XMdj3U0eu5GTJZxhmyJlU6cffTpmCM3eudu4Y6UQHDr0pM8bnL0B1XV28ICn+VNhttBe3H16C248sxxmzizC+JLkgMemDRYlhmCHHMIC6sgLcffpUnDt/VGxmA6ETDdL6yxiB+IlZFTxeL0aNHTfgK+4MI/b4911rPLjr6FI8fnIZDptUgOpCvppuJGBRYhhm2CjwenDP6VNxzf5jUF1k06vRipWkXyUMw0BhSTHGTJ6M4tKSuCg3GAZQU+zBl8Z5cNuhfjx4QhkOn8R3u440LEoMwwwrBV4PbjxyPG46vBbTqs3eTdxQndI9UXsqyhV3voICVNbUoHbCePiLCpUgd1T4DZwy3Y+bDy7G7UeU4sipRSgt4G5RJsCixDDMsFPq9+CseWV4+MxxOHnBeBQWFfWLjjXLeCI+fwEqa2oxZtIkVNSMgo+eQ0pCoUfgxElh/Pf4EvziwCIcPNGHMrfz9THDAn8aDMOMCAUeYEaVF/86pgR/O2US9tlpKsaMHYOyikoUFpfAX1SIwuJilJSVobq2FuOmTMH4qVNRVVsDX0GB65nAPUbsia7HT4ri0aMEfr6PF3NrfCgtMOgZLCYDYFFiGGbEOWWqwL+O8OFHB1Tg0J3GYM70iRg/aQrGTpyE0ePHo2LUKPgLC10LEczZuqeVC5w0WeBvBwnctJeBCWXu6zMjA4sSwzAjjoHYjAnnzxL44/7ATXsJXDQHmD8KqCp0LyR+DzCjXODUqQI/3MPAH/cHbthTYJdRsVkZmMyHb5414Zzu4JzJ4ZzucMopBBCKAt0RwF9SgY0dUXyyI4q1LREEegW6wwKhiEBpgYHKQg8mlhnYaZQHE/3dKPMBJQVAoSc2dKcjXa9ThXO6I1lO/u3AMEzGYRiA3xt7lPj4Mg/2H+fDFbv48dsvFeOfR5XgP8eV4uETy3DPMaW45dBifHevIpww3Y8pZUBNEVDstRckJrMxotGo1VNKpmAqbpWRc7qDcyaHc7qDcyaHc7pjJHJyT4lhGIbJGFiUGIZhmIyBRYlhGIbJGP4frSYX/PEfY4MAAAAASUVORK5CYII=;" vertex="1" parent="1">
          <mxGeometry x="130" y="195" width="50.24" height="50" as="geometry" />
        </mxCell>
        <mxCell id="LcKzMA8Y2Yb7VPsAx9Zp-3" value="" style="verticalLabelPosition=bottom;html=1;verticalAlign=top;align=center;strokeColor=none;fillColor=#00BEF2;shape=mxgraph.azure.github_code;pointerEvents=1;" vertex="1" parent="1">
          <mxGeometry x="130" y="30" width="50" height="50" as="geometry" />
        </mxCell>
        <mxCell id="LcKzMA8Y2Yb7VPsAx9Zp-4" style="edgeStyle=orthogonalEdgeStyle;rounded=0;orthogonalLoop=1;jettySize=auto;html=1;entryX=0.5;entryY=1;entryDx=0;entryDy=0;entryPerimeter=0;" edge="1" parent="1" source="LcKzMA8Y2Yb7VPsAx9Zp-2" target="LcKzMA8Y2Yb7VPsAx9Zp-3">
          <mxGeometry relative="1" as="geometry" />
        </mxCell>
        <mxCell id="LcKzMA8Y2Yb7VPsAx9Zp-5" value="&lt;b&gt;AWS Account&lt;/b&gt;" style="points=[[0,0],[0.25,0],[0.5,0],[0.75,0],[1,0],[1,0.25],[1,0.5],[1,0.75],[1,1],[0.75,1],[0.5,1],[0.25,1],[0,1],[0,0.75],[0,0.5],[0,0.25]];outlineConnect=0;gradientColor=none;html=1;whiteSpace=wrap;fontSize=12;fontStyle=0;container=1;pointerEvents=0;collapsible=0;recursiveResize=0;shape=mxgraph.aws4.group;grIcon=mxgraph.aws4.group_account;strokeColor=#CD2264;fillColor=none;verticalAlign=top;align=left;spacingLeft=30;fontColor=#CD2264;dashed=0;strokeWidth=2;" vertex="1" parent="1">
          <mxGeometry x="640" y="160" width="270" height="240" as="geometry" />
        </mxCell>
        <mxCell id="LcKzMA8Y2Yb7VPsAx9Zp-7" style="edgeStyle=orthogonalEdgeStyle;rounded=0;orthogonalLoop=1;jettySize=auto;html=1;entryX=0;entryY=0.25;entryDx=0;entryDy=0;" edge="1" parent="1" source="LcKzMA8Y2Yb7VPsAx9Zp-6" target="LcKzMA8Y2Yb7VPsAx9Zp-5">
          <mxGeometry relative="1" as="geometry" />
        </mxCell>
        <mxCell id="LcKzMA8Y2Yb7VPsAx9Zp-6" value="" style="shape=image;verticalLabelPosition=bottom;labelBackgroundColor=default;verticalAlign=top;aspect=fixed;imageAspect=0;image=data:image/png,iVBORw0KGgoAAAANSUhEUgAAANQAAADYCAYAAACTHM1jAAAAAXNSR0IArs4c6QAAAARnQU1BAACxjwv8YQUAAAAJcEhZcwAADsMAAA7DAcdvqGQAAB1lSURBVHhe7d13nFT1vf/x1/ecM2V7R5qggmIQLCBGbtDkqoliDJoYMV4TRI2JATtFFKWIID1CFLFEMUYNxtiiybVcE/jZsCQixYagKFK3tynnnO/vjzNDlnVhd9nZ3ZnZz/Px4J/d4csyZ977Pd/2OaqsrEzTjPz8/MZf2q+KiorGX2qStNky0mbzkqlNY5/vCCHaRAIlRAJJoIRIIOW6brNjqJbcd2qtAUVBQcvuPVvSZlxL72elzZaRNpt3sG0mrIfSGlwXXFejm42oEOkpYYGqqVb84d4I774ZIhqVUImuKWGBcmzNlk0O9y2p4Ldzyti53SYS8XouIbqKhAUKQLsQiWg2rg0zd1opz/ypij27HOmxRJeR0EDFaQ1lexxeeLqG6RN28681IepqNY6t0c3PgQiRstolUHFaQ02Ny31LK1g8p5T1a8PYTuNXCZE+2jVQcdGIZtOHEe6aX84f7q3kiy1RbFvGVyL9dEigiPVWkYjmtX/U8dvZZfz92Sg11VrGVyKtdFigiIXKcbzx1f+9EOXexWE+eM8lVB8bX0mwRIpTidptXrrb4bYb91Be1rpBkmVBj94W4ycW0u0QC8PUKKVQ6j+vaemqdUt+zjhps3nSZss0bLNDe6im2DZ8+YXNrCl7eOyhSnZ87eA6zWZciKTU6YECQENtjcs/Xqxj1o17eO0f9VRVOjiOTFyI1JIcgYpxHE1dncsj91eyZG4577xRTzjkyvhKpIykChQNZgM3fRTh3iUVrFhexbYvNbbtbb6VYIlklnSBitPa2x/4xqo67v1tmGdXRqiu1LKbXSS1pA1UQzXVmtdetblrfoi3VjvU1Wpct/GrhOh8KREoHTtrtXOH5i+PRVg6N8Tnn7lEwnILKJJLSgRqLw12FHZs09y/JMyTf4ywbatLNOoFTojOllqBitEaams0a15zWHJHiH++FKW2xsW2dewovhCdIyUDFae1JhyC55+Mcs/CCKterpPbQNGpElakpbxUs3hWiMqKZptrF0qBaSq+Ndjgv8+y6HuEiWV5X29KS7eWtOT/HidtNi/d20zpHqohrcG2NRvWujx4V4RHHwizZ5fGjiKHGkWHSZtAxbmupqZa8/47LssWhnhztUNlpRc2uRUU7S3tAhXnuprS3Zq/PBbmrnkhPtngym4L0e7SNlBxrgO7d2oeXBbm4eURtmxycWQ3u2gnaR8o4vsDw7D+3zbLF4d4dmWU8rL4NHvjVwtx8LpEoOJc1wvWa6/aLJhZykvP1zZYv2r8aiFar0sFigbH8L/6IsqfH6li6bwyPvkwQjjkyvhKtFmXC1RDjgMfrY9w55xyls4vZ9cOG9eR3kocvC4dqLhwyGXj2jBzppbyt2dq2b3TxrElVaL1Or1ISzJRCgwDcvMU5472cczxFsUleRjGvkVj9qelq+steT/jpM3mJVOb0kM1EB9fVZRrHv19hIeWh9n4QYRwWMfqWzT7u0d0cRKoJmgN0Sh8uNZhyR1lPP5gFeVlDq7bgm5KdGkSqAPQsfoW/3iplgUzSvny82jjlwixDwlUC5XudqiqTN3xoegYEqgW0rE/QhyIBKqNvPGWxpH1q7ThTU5pbNtt9USUBKqNtAvPPlHDrh2OFORMcVp718+2XT79tJLbbnsPu5XrkRKoNnI1bN4UZebkPfzlMZsd21wcGWqlJMfRbN1ay733bmLKlDVs2VLd6uI/Eqg28n6racIhzZuroyydG+aNVTY1VfG1q8Z/QySTeI9UURHhuee2ceut61i1ahfV1VG0bv3aowQqQbT2zl7V1WqeejTK/UvDvPuGQyTifV0kl3iQQiGH1at3M3fuRlau3EptbTQ2Hj64ClppU6SlvVk++OU1AQYONvf5ejSquW9JhE83ujR+K00Thnw7yI/Oz6bnoT4sy9vCVFnZ/PsZ19ItMC25RnFduc28vLxYmDSbN1fxpz9t4vXXd8ROGux7/Q45JMiddw4lEDhwv5OWRVqSkePAu2+GmDe9lEcfqKS2+puhEx0nPulQVhZm/vz3mTLlLVav3r63R0oECVQ709q7DVz1Sh23TtjNqlfqqaqU2uwdzXE0lZU2f/3rF1x11WusWvU11dWJ3/kigeoAOlabvbzU4dEHKlm2MMTWLS7RSLxoTGJ+O4p9ae09rSUcdlm/voKpU9dyzz0b2b27vt3WDSVQHUjHFoG3f6VZOjfMyocjfLnFxbaV9FgJFA9SNKr55JNqli//lAULPmLnzhCRiNMuQYqTQHUCrcGOat5+3WbpvBCv/C1CbY08qTERXNdbrqisjPLkk1u57bb1rF69i7o6u0PGrxKoTmZH4cVnHe5eEOGNVQ6OLWtXB0trCIVcXn55BzNmrOOpp74iFGrfHqkxCVQn88ZXmu1fuTz9eJRli0Ns2eQSqpfeqqW0hnDYZePGSu64YwMPPbSZr76q75AeqTEJVJLQsbWRzz5yuX9JmD+tiFBVEa/N3vjVgtjtXSTism1bPUuWfMz8+R+ycWPlQW1qTRQJVJLRsWdfvf+Ow/zpIV75ey0V5Y7UDmzAm3Bw2bMnxF//+jkzZ37AmjV79m4X6kxSpKWFfH7FNVMKOG5IcJ+vR6OaxbPL+PCDSLvcYhiGoqAIRo/xc+TRFqalmywY05JrFNfSnQXJ1qbX6yiiUZd33y1jxYrNlJW1z/sO0KNHJr///fcIBvfdHdOYFGlJIa6rKSuF++4Ms+KeMJ997O1m7+zfxJ3BtjUffFDOnXd+zJIlH7drmA6WBCoFaNfbWbH+fZt7FoV4+vEI1VXeDGG6B8u7vXPYtSvEI49s4Y47NvD226VEo8m5jUsClSK82UCwba82++/mhlj9fza1Nel5TERriEZdqqpsnnlmG7NmbeDvf99ONOot2iYrCVSKiQdr53aX5/4cYfniMJs+cqir8x7Tk+rBii8j1NVFWb++grlzN7By5Va2batLif+fBCqFuQ58+bnL/UvDLF9cQXmZm9JT7PEtQ59/Xs3Mme+xYMFHfPJJdVL3SI1JoFKc1hCNwLp/h7jlut08vbKandvthB5J6Ai27fLVV3U88sinTJr0Fv/61x7C4dSbMZZApYH4bWB9ncsLT1Uz99ZSXv9nPeEwSb0/UMeqC9XVeccqJk16k8ce+5SKCm/2Lll/7gORQKURrb1Ji7JSh4eWVbBsUTnr3g8TjXhlzpKF1t7PEwrZrFmzk9tvf4/ly71jFZ25yyERJFBpyPvND++/E2Lp3HLu/10FVZXJsX7luhrb1uzZE2Lx4nXMmPEea9bsJhp1O/1nSwQJVJpzHHj79XqmT9jNs09UU1vjPamxM7iuprw8wooVH3PNNa/x6qvbUr5HakyKtLTQwRRpSSoKTAPy8hU/v6KAAQP9ZGUrDKOJfUwxLbnucQfaUuQ4LjU1Nh98UMr9929kx456XNcLWDKTIi1i/2K3geVlcN+ScpYtLufzz2wiEW8XRqJ7iXhBlFDIYf36cqZNe4c5c/7Ntm112HZyL862RWIDtf9fdiJJaK0J1Ws2rg0zf3opTz5axfavbOwEHmz0Jkc0n39exe9//xHTpr3Dhg3lhMMde9ivMyQuUEpjGBKqVKE11NW5/O+ztcyeuodXX6wlGtFo9+CDFV+YjUQcnnxyMxMnvsVTT22mujqatj1SYwkLVG6ewYWXBBh0fADLp1BNnTEQSammxuVPK6qZN6OUt16rx462fg3IC6jDq69+zeTJb/Hggx9RURFudTupLmGBMgw4epDBdTcVcsmv8ijuZsSC1fiVIulobwH4s4+jPHBXBYvnlLFzu0002vzYSuv4qdkaZs58l4UL17JhQ3lK7LtrDwkLVPwJ6n6/YsRpmUycVsTIc7PJyTUwTbkVTAWuq4lGvPHVHbeW8sJTUWqqFO5+1q+iUZddu8I8/PBmrr/+Td57bzeRiNNlbu+akrBANWSa0KOXxU8uyubGmUUcc1yAYNDAMLzgieSmtVeU858vRpk3LcSmT5reU7d5cy3Tp6/jxRd3UFoaajJ0XU27BCrONBW9+/q4enIh104poO/hPlS7/osikVzXKyO9dUvTu9j/9a9SysuT79RsZ2r3j7dS4A/AtwYHmDSjiHNH59Cjl4lhSm+VCg48hlLNfL/rSViRlrgDra7r2K7ouhp48Tl4901vR3Qq7CzurCItnc004ac/z2XkqGyMRrVKHnroYx5//NNWPzYzVSR9kRalvAuUkweXXJnHuIkFHHdiAH9AyfhKpIUODVRDPp9i8AlBrppUwPiJhRQWm5imTLOL1NZpgWJvj6U4doifqbOL+enFuRQWmd6OCyFSUKd/dL31K0VhscmZo7KYNKOQId8Okp1tYBiy40Kklk4PVFx8fNWjl49fXVvAVZMLOHqwH5/fWzAWIhUk3UdVKQgGFd8aHODaGws4/+IcuvVQWJZMWojkl3SBilMKMjINzvpRNtdMCfK9M30EAjJpIZJb0gYqTinIyoKzf2wxbpKfE4dbBDMkWCI5JX2gAJShsCxF3yNMLrrUz2Xj/XTrofD5ZNOtSC4pEag4pbzaDkcNNLhqcpAfX+SjpJuBT46JiCSRsCItcS3dppSINl1XU7rb5emV1ax9N0RdrVfRpz22MaV8kZaDZJrww/N9nHam7xtbjx5//AuefvrLtN161OWKtBiGoribyeXj8rh+aiHHHGdhWo1fJUTHSelAEV+/shRHHOlnzK/9/PTnPvoe4d0GyvhKdLSUD1ScYYDPD98eYfHr6wL86AIf2dmyfiU6VtoEigZ7A7NzFaecbjF+UoBh3/GRmaUw5fyV6ABpFaiGTBN69TEYPcbHuEkBig9RmNJbiXaWtoGKMwxN7z4GN9wS5Gdj/RzSU31jtkqIREn7QCnlrVEFMxRDv21y1eQg//U9i8JiOYYvEi/tAxUXnw3MyVX85CIfN0wt5KThGQQzDAmWSJguE6g4pcCyFH0O9/HLa/K5bFweh/f34fN7PZkES7RFhxZpaShZ2tQaQiHN+287PP9UhNpqr5BMY1KkRYq07E+nFWlJRip2/uqkERbXTgky4jSLnDw51CgOjnxsGpwWLulucO6FPq6anMFh/Qz8AbkFFK0jgWpAKa8aU/eeiitvCHDR2ABHHOmNr6THEi0hH5MmxKfZh5xsMnlGMd//YRYFhVKNSTRPPiIHEA/W6F/kMGl6ET17+xq/RIh9SKCaoWJlzoq7mRQVHXi2RwgJVAspJcftRfMkUG2kFFimQiktM4JpIn5XYpoKw2jdRZVAtZFhwBlnZ5KZZUht9jTgLaEoiosDTJp0PJbVugsqgWojw1AcOyTI3Lu6MfI8i5xcWbtKVYahKCoKMGbMEdx996kMGlTY6muZ0kVaGuvMNrWGnJw8qipcHn+oio3rwtTVahyn2bc3qaV7kZb4aYTcXD9Dh5Zw6aUDKCkJUlNT1eIwpU2RlmSiYptuC4pMrrg2n/ETCxgwyI9fFoWTlmEo/H6DoUOLmTVrGBMmDKZ79wx8PqPFYWpMLnWCKQV+v1ebfcLUQkaPyaVXHx+W1A5MGoahsCyDww/P4corBzJt2lAGDiwgGLRaPQnRmASqnSjl7VD//g+zuHFmEedekCMFOZOAUpCVZTFmzFEsXDicUaMOIyvLl7DrIoFqI63BsUHvZyiqFOTkGpzzkyxunl3Ed76XSSAoExcdTSnIzDQ544zeLFgwnAsv7EdOTuKCFCeBaiPXhWdWRtn2lSYc0k2epVKx08KH9/dz6bh8xk0IUlRi4PNJsNqbdwtu0LdvFrfcMogJE46jf/9cfD7vgX6JJoFqI61hx3aXu+eFWbG8ki2bItjRpp9qrxT4fNC3n2LCtADn/sxPXj5SO7AdKOWNk3r2zGDs2H5MmzaYo47Kwe9vnyDFSaDaSMeSU18Pb6yqY+FtZTz/VA0V5Q6u03SddcNQZGUrTjnN4qbZGQz7Lx/ZOd5soASrbVRsl0NursWIESXMnn0cP/hBd/Lzfe0apDgJVAJpDXW1Ls+srGbBzDJefbGO6H56K2IXP5ihuGCMjyuu8zPwOFN2W7SRZSlOOqmIW28dxLhx/cnJ8XXoskUH/lNdg9beuGrb1iiPPVTBnXeUsXFdmFCo6WCp2GnhPoeZXDYuwMW/9NPncFPGV61gGAqfz+Coo3IYP34A1103gMMOy8KyDn496WB1+SItzWmuzeaKtBiG1wsNPNbkvJ/5yMiE4uKC/V5o14XqKoe3Xw/x5KNVRCPgOE2HsSMkc5EW75eRQV6ej0suOZoRI7qTm+vbu/uhKYm67g1JkZYO5LpQV6t57y2bRTND/PMlh4oyB8duOiSGAXn5JqeflcXUOcWcNMIkM8urdru/D0lX4wVJkZvr4/TTD2Hu3JMZOfJQ8vP9GMb+w9QRJFAdRGsoL9O88JcIs6eW8tmnUWxbo5uYZgcwTDi0r8XoMX6uujHAoX1NLKtzPyzJQCmwLIMjj8xh2rTB/PKX/ejXLxfTTI43RgLVwbRW7N5pM/fWPdw1v5xPPox4wWqit/JuXTQ9exuMm+jngjE+rzZ7F50NNE1F//45XHllf2655RgOOyyrQyccWiLJfpz0p7UXHseBte+FWDSrlCceqWbPLgfb/uY0e8Pa7MOGm0yYFuS0s3zk5ivMLtBjxW/viosDnHNOL6ZOPYZTTikhI8NEKe/9SSYSqE4Snw0MhTQvP1/DolmlvPTXGupq3CbHVyq228LvV4z8scWvrg1wwjADn9/7wKUj01RkZFicemo3pk4dxMUXH0ZOji82e5ec/2cJVBJwHNi+zeaJP1axaHYZG9dFCNV7D8GOLxzHqVjtwEMPM/ifywNcOj5A335q7zR7kn7OWszrkRWBgMmAATlce+0ArryyP337ZqbEGFIClSS0BteBzz6OsnReGcsWVlBV6X6jp2rIsuCYwSa/vi7AZePyycjs+HWXRFMKCgr8TJx4HDffPIgTTyzE50udj2nq/KRdhNaaSFizbm2Iqdfu5vkno+zeqXGcxq+MiY2vhp+aye13lnDWqGxy81IvWIahKCnJ4MIL+/G7343gu9/tsXeclEokUEko3ltVV7v840WbO+fUs3GtQzjkLfI2ppQ3zV5UbHL+xTnMvrMb3xocIBBM7tPCSnlVhYJBkyFDilm0aDhjxw6ge/fMTtnlkAhJ/HYLYrOBNVXw0D0RHlwW5sN1GjvqTWg0vh2Mj69y8w2umVLA5ePzOeKo/zz7KpnEj58PGlTApEnHM3PmifTsmdmm4+fJQIq0NKO5NqNRzX1LIny60ZtEaFexuhUj/juTc36SRWGxtffp9k39nFqDbcM/X7T5f69Gqar4z7R9SyW6SIuK7QYvKPBz1lk9OOusHmRkWE2GKFHXqKH2blN6qFSiwbE1q16u5Y5bSnn2iWrqatwDnha2LDhtpMX4SQFOOd3CNDuvIKdSEAiYjBrVmxkzBnPeeb33G6ZUJYFKMVp7f8pKHV54qprbbyrl3bfC1NboJntIFdvN3q27wajRFuMnBxl8QpBAoOM+xUopMjMthg4t4dZbB/Gzn/WhR4+MTt931x4kUCkqfjv39bYoD9xVwYPLIuzYprFt1eQtXXx8dXh/gyuvz+c3NxRQVGK2a+EY7980OOSQDG6+eQjTpw9lwICclB8nHYgEKsVpDfV1Lps+dFlyR5jnngiza4eL4zRdOMYwFNk5BscPCzJzYQkjz8smr8A72JiohyHEy3R1757JhRf2Z+nS73Dyyd3IyuqYU7OdSQKVJrTW1NdpVr1ss+i2EG+utrGdpnsr8I6J5OYZnP8/Ocxf1o3BJwQS0lt54zbFkCHF3H33CMaOPYri4mDaBylOApVmtIZwCP7yxwh3zQvx77cd7Og3p9jjvIkCxfhJ+Vw9uZCBxwcOaouPUgq/32TYsG7MmjWMWbOGkZvrnU/qSiRQaUjH1q++2Ozy6ANhVtwTZsfX3vpVU8FSsVJbg0/wc/2UQn7xq1wO6WFhteAYvlLe8fMePTIZP/4Ypk8fypAhJVhW6x8Fkw4kUGnMdSEahQ1rXe6eH+LZJyLUVLveulETi8KmqfAHFKeelskNUws5Y6QvtttCoRv/hdhu8NxcH+ed15t5877N2Wf3IRi0YoVmul6YkEB1DY6jqarUrH7FZtHMMGteC1FV5TS52wK8YyLde1mcOcri6hsD9O7TdC27fv1yuOmmgYwe3YdevbKkYhNSpKVZzbXZXJGWZKMUmBb06GVw/sV++h5h7PcEcH5+/t7ANfX9+NESpVTC3s+GUrFN6aG6GB2rxb5tq8td8+r58x+ifPm5c4Bj+E2HiViQuuqt3f5IoLogHTst7DiKt16L8rt5YV75m0045O1yb3yoUbScBKoL07FjIpEwvPSczbIFIda8bmPbqlNrAaYyCZSIbWPSfLHFZeXDEe5ZHOLrL90DlpEWTZNAib20Bu3CZx+53LMowsPLK6mqOPAxfLEvCZTYh47tZq+p0by5up5bb9jNun+HUmIGMxlIoETTYreBNdUu27Y6aC2zeS0hgRIHpLXG1TpRG9HTngRKiASSQAmRQFKkpRnNtdmhRVo6wYGKtDSUqPezoVRsU3ooIRJIAiVEAkmghEggCZQQCSSBEiKBJFBCJJAESogEkkAJkUASKCESSIq0NKO5NlOtSEtrmSb89Oe5jByVfcCdEol6PxtKxTalhxIigSRQQiSQBEqIBJJACZFAEighEkgCJUQCSaCESCAJlBAJJIESIoEkUEIkkBRpaUZzbUqRFk+i3s+GUrFN6aGESCAJlBAJJIESIoEkUEIkkARKiASSQLWR91Bnvd8HO4uuRQLVRoah+ME5foq6gT+gJFhdnASqjQwD+h1lcN1NQS6+LJf8QgPT9Hou0fVIoBJAKcjOVXz3+1nMXFjCKadnkZtvYBjSY3U1UqSlGa1tU7sax4UdX2ue+3OETR+62HbjV6YOKdLSPCnS0o6UoTBN6Nnb4IprgvzP5QEO66fw+aS36gokUO1AKYVhgGXBCcMMfjMhyNk/tvAHvLBJsNKXBKodKQWmpQhmKL53po/rpgYYfqpJZpYXOJF+5LJ2AKW8sUivQw3Ov9jPxGlF9O7jw5LbwLQjgepghqk4vL+fm2cXccXV+XTvaR1wsC9SiwSqgynlrV1lZBqc9J0g0+YV84MfZlPSzZLbwDQgl7CTeLeBiswsgwt+kcMNtxRy4vAgfr83vpJbwdQkgepkSoHPp+h1qMWV1xcyflIB/Y/2Y1kyvkpFEqhkobxp9uNPDDJ5ehFjf5OHzy+hSjUSqCSjFPj8iuGnZjBnSQnf/6FFTq7CMCRZqUCKtDSjM9vUGnKy89m+LcpjK6rY8kmU+noX3ewVSxwp0tI8KdKSIpQCywe9+/q4elIBl1+dT+++PhlfJTEJVApQCjKzDE482ZtmP+f8bEq6mTIbmIQkUClEKQj4FedekM2NtxVx2sgs2W2RZCRQqSa2P7CoxOSisXlMuKWQY4cG8fu9ne6ic0mgUpRhKHw+GHCMn/ETChg7LkBWljf1juSq00igUpxpervZBx5rcNPtGXz/HB85OQrTlFvBziCBShOGocjJgzNH+bjp9iDfOtbA55dJi44mgUozSkFmtuLS3wS4bHyAfkcbWJakqqNIoNJMfDe75dMcfYzJr68LMmq0jx69vGBJj9W+pEhLM1K9Ta3BcaCizOHV/63lpRdqsW2Ndr3vNUeKtDSvYZvSQ6U5Fdt0W1Ricv7Fudw0q5jjhlpYPhlftQcJVBehYsfw+x3p4+dX+Bk/KUBhkSGhSjAJVFcT67H6Hm4wYVqAcy/0kV/oTb+LtpNAdUEqttsiK0dx6hkWN92ewdCTTbKkGlObydvXhXnjK29h+MJL/Fw6PsDRx5pYPu/8lZL7wVaTQAmUAp8fjjxacfl4PxeN9dG9p8Iw5DE9rSWBEnspQ2FZiqHDLX4zIcDoX+QRCBoooAUz7EICJRqLLwzn5ivOODuTqXOKGHCMX8ZWLSRvk2iSdxuo6HWojyOO9MutXwtJoMQBKSULwK0hRVqaIW22jLTpkR5KiAT6/0fF6OuGuBXPAAAAAElFTkSuQmCC;" vertex="1" parent="1">
          <mxGeometry x="290" y="190" width="58.89" height="60" as="geometry" />
        </mxCell>
        <mxCell id="LcKzMA8Y2Yb7VPsAx9Zp-9" value="&lt;b&gt;AWS Provider&lt;/b&gt;" style="whiteSpace=wrap;html=1;fillColor=#dae8fc;gradientColor=#7ea6e0;strokeColor=#6c8ebf;" vertex="1" parent="1">
          <mxGeometry x="450" y="180" width="110" height="30" as="geometry" />
        </mxCell>
        <mxCell id="LcKzMA8Y2Yb7VPsAx9Zp-11" style="edgeStyle=orthogonalEdgeStyle;rounded=0;orthogonalLoop=1;jettySize=auto;html=1;" edge="1" parent="1" source="LcKzMA8Y2Yb7VPsAx9Zp-10" target="LcKzMA8Y2Yb7VPsAx9Zp-5">
          <mxGeometry relative="1" as="geometry">
            <Array as="points">
              <mxPoint x="560" y="285" />
              <mxPoint x="560" y="285" />
            </Array>
          </mxGeometry>
        </mxCell>
        <mxCell id="LcKzMA8Y2Yb7VPsAx9Zp-10" value="" style="sketch=0;points=[[0,0,0],[0.25,0,0],[0.5,0,0],[0.75,0,0],[1,0,0],[0,1,0],[0.25,1,0],[0.5,1,0],[0.75,1,0],[1,1,0],[0,0.25,0],[0,0.5,0],[0,0.75,0],[1,0.25,0],[1,0.5,0],[1,0.75,0]];outlineConnect=0;fontColor=#232F3E;fillColor=#ED7100;strokeColor=#ffffff;dashed=0;verticalLabelPosition=bottom;verticalAlign=top;align=center;html=1;fontSize=12;fontStyle=0;aspect=fixed;shape=mxgraph.aws4.resourceIcon;resIcon=mxgraph.aws4.genomics_cli;" vertex="1" parent="1">
          <mxGeometry x="294.94" y="260" width="49" height="49" as="geometry" />
        </mxCell>
        <mxCell id="LcKzMA8Y2Yb7VPsAx9Zp-12" style="edgeStyle=orthogonalEdgeStyle;rounded=0;orthogonalLoop=1;jettySize=auto;html=1;entryX=0;entryY=0.5;entryDx=0;entryDy=0;entryPerimeter=0;exitX=0;exitY=0.5;exitDx=0;exitDy=0;" edge="1" parent="1" source="LcKzMA8Y2Yb7VPsAx9Zp-6" target="LcKzMA8Y2Yb7VPsAx9Zp-10">
          <mxGeometry relative="1" as="geometry" />
        </mxCell>
        <mxCell id="LcKzMA8Y2Yb7VPsAx9Zp-13" value="&lt;b&gt;Authentication&lt;/b&gt;" style="text;html=1;align=center;verticalAlign=middle;resizable=0;points=[];autosize=1;strokeColor=none;fillColor=none;" vertex="1" parent="1">
          <mxGeometry x="450" y="279" width="110" height="30" as="geometry" />
        </mxCell>
      </root>
    </mxGraphModel>
  </diagram>
</mxfile>
